<svg xmlns="http://www.w3.org/2000/svg" viewBox="0.0 0.0 24.0 24.0" height="200px" width="200px"><path fill="black" fill-opacity="1.0"  filling="0" d="M21.089845657348633 6.770500183105469 L17.20090103149414 10.659629821777344 L16.88324546813965 10.341975212097168 L20.8667049407959 6.424065113067627 L19.063499450683594 4.638915061950684 L12.692870140075684 10.961179733276367 A0.656154990196228 0.656154990196228 0.0 0 0 12.5 11.423830032348633 L12.498259544372559 12.5 L12.00175952911377 12.5 L12.0 11.424559593200684 A0.6565700173377991 0.6565700173377991 0.0 0 0 11.807129859924316 10.961179733276367 L5.436500072479248 4.638915061950684 L3.6332998275756836 6.424069881439209 L7.616759777069092 10.342000007629395 L7.299104690551758 10.65965461730957 L3.4101552963256836 6.770500183105469 L1.6425800323486328 8.538084983825684 L6.762694835662842 13.658445358276367 A0.757390022277832 0.757390022277832 0.0 0 0 7.835449695587158 13.658445358276367 L8.530759811401367 12.963135719299316 A0.7588649988174438 0.7588649988174438 0.0 0 0 8.530759811401367 11.891361236572266 L8.006105422973633 11.366700172424316 L8.32965087890625 11.0431547164917 L9.435060501098633 12.130374908447266 A0.21610000729560852 0.21610000729560852 0.0 0 1 9.500000953674316 12.28587532043457 L9.500000953674316 20.242919921875 A1.2570799589157104 1.2570799589157104 0.0 1 0 12.014161109924316 20.240964889526367 L12.003325462341309 13.5 L12.496670722961426 13.5 L12.485836029052734 20.2412109375 A1.2570799589157104 1.2570799589157104 0.0 1 0 15.0 20.242919921875 L15.0 12.285889625549316 A0.21610000729560852 0.21610000729560852 0.0 0 1 15.064940452575684 12.130389213562012 L16.17034912109375 11.043149948120117 L16.493894577026367 11.366695404052734 L15.96875 11.891844749450684 A0.7587199807167053 0.7587199807167053 0.0 0 0 15.969249725341797 12.963134765625 L16.664560317993164 13.65845012664795 A0.757390022277832 0.757390022277832 0.0 0 0 17.736825942993164 13.658949851989746 L22.857431411743164 8.53809928894043 Z M3.4101552963256836 8.1845703125 L4.122894763946533 8.89739990234375 L3.775179862976074 9.256619453430176 L3.0566396713256836 8.538084983825684 Z M7.299314975738525 12.780759811401367 L4.4823899269104 9.963834762573242 L4.830074787139893 9.604674339294434 L7.652339935302734 12.427244186401367 Z M5.435544967651367 6.047120094299316 L6.205929756164551 6.811645030975342 L5.838984966278076 7.190674781799316 L5.057125091552734 6.421629905700684 Z M10.93896484375 20.424560546875 A0.26633501052856445 0.26633501052856445 0.0 0 1 10.5 20.242919921875 L10.5 12.285889625549316 A1.224660038948059 1.224660038948059 0.0 0 0 10.13623046875 11.417479515075684 L6.551970481872559 7.891979217529297 L6.915830612182617 7.516124248504639 L11.0 11.569089889526367 L11.01416015625 20.242183685302734 A0.25688499212265015 0.25688499212265015 0.0 0 1 10.93896484375 20.424560546875 Z M19.064464569091797 6.047120094299316 L19.44288444519043 6.421619892120361 L18.660999298095703 7.190674781799316 L18.29405403137207 6.811644554138184 Z M14.36376953125 11.417499542236328 A1.224660038948059 1.224660038948059 0.0 0 0 14.0 12.285889625549316 L14.0 20.242919921875 A0.26633501052856445 0.26633501052856445 0.0 0 1 13.56103515625 20.424560546875 A0.256740003824234 0.256740003824234 0.0 0 1 13.48583984375 20.242429733276367 L13.5 11.569089889526367 L17.584165573120117 7.516089916229248 L17.94802474975586 7.891944885253906 Z M21.443359375 8.538105010986328 L20.724824905395508 9.256640434265137 L20.37710952758789 8.897420883178711 L21.0898494720459 8.184591293334961 Z M17.20068359375 12.780779838562012 L16.847658157348633 12.427279472351074 L19.669923782348633 9.60470962524414 L20.017608642578125 9.96387004852295 Z"></path></svg>