<svg height='100px' width='100px'  fill="#FFFFFF" xmlns="http://www.w3.org/2000/svg" viewBox="0 0 48 48" x="0px" y="0px"><title>s</title><path d="M42.17969,13.541l-7.77789,7.77826-.63531-.63531,7.96692-7.83582L38.127,9.27783,25.38574,21.92236A1.31231,1.31231,0,0,0,25,22.84766L24.99652,25h-.993L24,22.84912a1.31314,1.31314,0,0,0-.38574-.92676L10.873,9.27783,7.2666,12.84814,15.23352,20.684l-.63531.63531L6.82031,13.541,3.28516,17.07617,13.52539,27.31689a1.51478,1.51478,0,0,0,2.14551,0l1.39062-1.39062a1.51773,1.51773,0,0,0,0-2.14355L16.01221,22.7334l.64709-.64709,2.21082,2.17444a.4322.4322,0,0,1,.12988.311V40.48584a2.51416,2.51416,0,1,0,5.02832-.00391L24.00665,27h.98669l-.02167,13.48242A2.51416,2.51416,0,1,0,30,40.48584V24.57178a.4322.4322,0,0,1,.12988-.311L32.3407,22.0863l.64709.64709L31.9375,23.78369a1.51744,1.51744,0,0,0,.001,2.14258l1.39062,1.39063a1.51478,1.51478,0,0,0,2.14453.001l10.24121-10.2417ZM6.82031,16.36914,8.24579,17.7948l-.69543.71844L6.11328,17.07617Zm7.77832,9.19238L8.96478,19.92767l.69537-.71832,5.64453,5.64514ZM10.87109,12.09424l1.54077,1.52905-.73389.75806-1.56372-1.53809ZM21.87793,40.84912A.53267.53267,0,0,1,21,40.48584V24.57178a2.44932,2.44932,0,0,0-.72754-1.73682l-7.16852-7.051.72772-.75171L22,23.13818l.02832,17.34619A.51377.51377,0,0,1,21.87793,40.84912Zm16.251-28.75488.75684.749L37.322,14.38135l-.73389-.75806ZM28.72754,22.835A2.44932,2.44932,0,0,0,28,24.57178V40.48584a.53267.53267,0,0,1-.87793.36328.51348.51348,0,0,1-.15039-.36426L27,23.13818l8.16833-8.106.72772.75171Zm14.15918-5.75879-1.43707,1.43707-.69543-.71844,1.42548-1.42566Zm-8.48535,8.48535-.70605-.707,5.64453-5.64514.69537.71832Z"></path></svg>