<?xml version="1.0" standalone="no"?>
<!DOCTYPE svg PUBLIC "-//W3C//DTD SVG 20010904//EN"
 "http://www.w3.org/TR/2001/REC-SVG-20010904/DTD/svg10.dtd">
<svg version="1.0" xmlns="http://www.w3.org/2000/svg"
 width="602.000000pt" height="602.000000pt" viewBox="0 0 602.000000 602.000000"
 preserveAspectRatio="xMidYMid meet">

<g transform="translate(0.000000,602.000000) scale(0.100000,-0.100000)"
fill="#000000" stroke="none">
<path d="M2648 5394 c-5 -4 -8 -189 -8 -411 l0 -403 304 0 c327 0 352 3 420
55 38 29 81 103 90 156 9 51 -11 131 -43 176 l-27 37 22 41 c65 119 18 267
-103 327 -47 22 -57 23 -348 26 -165 2 -303 0 -307 -4z m570 -190 c29 -20 30
-74 1 -100 -19 -17 -38 -19 -203 -19 l-181 0 -3 68 -3 67 183 0 c150 0 188 -3
206 -16z m16 -315 c32 -25 35 -75 7 -110 -19 -24 -21 -24 -213 -24 l-193 0 -3
78 -3 77 189 0 c176 0 191 -1 216 -21z"/>
<path d="M2712 4015 l-202 -405 103 0 103 0 32 65 32 65 230 0 230 0 32 -65
32 -65 103 0 103 0 -202 405 -203 405 -95 0 -95 0 -203 -405z m368 59 c36 -75
67 -140 68 -145 2 -5 -59 -9 -138 -9 -83 0 -140 4 -138 9 10 30 134 280 138
280 3 0 34 -61 70 -135z"/>
<path d="M660 3025 l0 -405 313 0 c306 0 313 1 362 24 88 40 136 118 136 218
1 55 -21 119 -53 162 -13 17 -12 24 10 64 52 92 27 212 -58 284 -63 55 -87 58
-414 58 l-296 0 0 -405z m574 214 c32 -25 35 -70 6 -99 -19 -19 -33 -20 -205
-20 l-185 0 0 63 c0 35 3 67 7 70 3 4 84 7 178 7 159 0 174 -2 199 -21z m5
-304 c48 -24 56 -81 16 -120 -24 -25 -26 -25 -215 -25 l-190 0 0 73 c0 41 3
77 7 80 3 4 85 7 180 7 133 0 181 -3 202 -15z"/>
<path d="M1790 3030 c-110 -220 -200 -402 -200 -405 0 -3 47 -5 104 -5 l104 0
28 65 28 65 231 0 231 0 32 -65 32 -65 100 0 c55 0 100 2 100 5 0 3 -90 185
-200 405 l-200 400 -95 0 -95 0 -200 -400z m373 38 l66 -138 -140 0 c-76 0
-139 2 -139 5 0 17 135 284 141 278 4 -4 36 -70 72 -145z"/>
<path d="M2510 3425 c0 -3 90 -122 200 -263 l200 -257 0 -142 0 -143 100 0
100 0 0 143 0 142 205 263 205 262 -118 0 -117 -1 -134 -179 c-73 -99 -137
-180 -141 -180 -5 0 -68 81 -142 180 l-133 180 -112 0 c-62 0 -113 -2 -113 -5z"/>
<path d="M3630 3025 l0 -405 370 0 370 0 0 85 0 85 -272 2 -273 3 0 75 0 75
263 3 262 2 0 85 0 85 -262 2 -263 3 0 65 0 65 273 3 272 2 0 85 0 85 -370 0
-370 0 0 -405z"/>
<path d="M4630 3025 l0 -405 95 0 94 0 3 153 3 152 71 3 71 3 117 -156 116
-155 116 0 c92 0 114 3 106 13 -5 6 -57 77 -116 156 l-106 144 50 29 c186 106
161 382 -41 453 -32 12 -100 15 -310 15 l-269 0 0 -405z m524 214 c37 -29 37
-89 0 -118 -24 -19 -40 -21 -180 -21 l-154 0 0 73 c0 41 3 77 7 80 3 4 72 7
153 7 134 0 150 -2 174 -21z"/>
<path d="M2640 2035 l0 -405 370 0 370 0 0 85 0 85 -275 0 -276 0 3 78 3 77
263 3 262 2 0 85 0 85 -265 0 -266 0 3 68 3 67 273 3 272 2 0 85 0 85 -370 0
-370 0 0 -405z"/>
<path d="M2642 1023 l3 -408 92 -3 92 -3 3 158 3 158 110 3 110 3 110 -147
c60 -81 115 -153 123 -160 10 -10 43 -14 123 -14 60 0 109 2 109 5 0 2 -54 77
-120 166 l-120 162 37 21 c137 77 159 282 41 392 -73 69 -71 69 -411 72 l-307
3 2 -408z m557 222 c50 -25 57 -91 15 -124 -25 -19 -40 -21 -205 -21 l-179 0
0 73 c0 41 3 77 7 80 3 4 80 7 170 7 124 0 171 -4 192 -15z"/>
</g>
</svg>
