<?xml version="1.0" standalone="no"?>
<!DOCTYPE svg PUBLIC "-//W3C//DTD SVG 20010904//EN"
 "http://www.w3.org/TR/2001/REC-SVG-20010904/DTD/svg10.dtd">
<svg version="1.0" xmlns="http://www.w3.org/2000/svg"
 width="1000.000000pt" height="431.000000pt" viewBox="0 0 1000.000000 431.000000"
 preserveAspectRatio="xMidYMid meet">

<g transform="translate(0.000000,431.000000) scale(0.100000,-0.100000)"
fill="#000000" stroke="none">
<path d="M5078 4253 c69 -79 92 -99 205 -177 113 -78 113 -77 -13 -116 -90
-27 -425 -215 -543 -304 -114 -86 -150 -126 -222 -251 -81 -141 -99 -202 -92
-314 5 -83 56 -270 94 -344 27 -54 135 -198 215 -289 l79 -91 -133 -66 c-157
-79 -269 -142 -314 -176 -47 -36 -161 -181 -189 -242 -74 -155 -18 -366 142
-535 161 -171 203 -219 248 -290 26 -40 68 -98 94 -128 26 -30 75 -92 110
-138 35 -46 94 -118 132 -160 38 -42 69 -81 69 -86 0 -4 -11 -5 -24 -2 -31 8
-54 -17 -36 -39 7 -8 16 -15 20 -15 5 0 39 -14 76 -30 57 -26 65 -33 53 -44
-21 -19 -273 -104 -349 -117 -119 -20 -448 -108 -556 -149 -59 -22 -113 -40
-120 -40 -22 0 -124 -50 -168 -82 l-41 -30 135 6 c74 3 140 5 145 6 6 0 26 -2
45 -6 28 -4 32 -3 20 6 -15 12 -14 12 100 -5 27 -4 22 -1 -24 18 l-58 23 43
18 c24 9 98 31 164 47 66 17 149 39 185 50 36 11 99 25 140 32 70 12 79 11
136 -10 46 -16 64 -19 73 -10 18 18 13 33 -15 46 -15 6 -25 13 -23 15 2 1 47
18 99 36 52 18 109 41 127 51 l32 20 57 -72 c32 -40 84 -99 117 -131 33 -32
56 -58 51 -58 -5 0 -91 26 -191 59 -100 32 -187 55 -193 51 -7 -4 -10 -15 -8
-25 2 -13 34 -27 118 -52 63 -19 171 -53 239 -74 68 -21 129 -39 135 -39 6 1
-16 14 -49 31 -52 25 -55 28 -26 24 74 -11 113 -26 107 -41 -4 -11 5 -14 39
-14 l45 0 -134 137 c-73 76 -157 166 -186 201 l-52 63 54 57 c29 31 78 82 108
112 30 31 85 88 122 126 64 68 70 71 150 93 46 12 134 26 196 31 84 7 123 15
159 33 89 44 155 175 138 274 -15 86 -126 398 -156 440 -93 128 -159 190 -289
269 -36 22 -74 45 -85 52 -11 7 -36 19 -55 28 -19 8 -58 27 -87 41 -29 15 -55
24 -59 20 -4 -3 -33 7 -65 24 -44 23 -62 28 -76 20 -11 -5 -25 -6 -32 -1 -19
11 24 34 50 27 31 -8 22 0 -43 42 -60 38 -63 39 -76 20 -17 -24 -34 -24 -55
-1 -37 41 -10 78 29 41 17 -16 23 -18 19 -7 -4 9 -30 35 -58 59 -29 23 -47 37
-40 29 13 -15 -4 -63 -21 -57 -12 4 -30 56 -23 64 3 3 61 9 129 15 157 12 168
14 168 37 0 16 -30 41 -138 118 -14 9 -3 17 69 51 47 21 128 54 180 72 52 18
141 50 199 71 58 21 132 45 166 53 33 9 94 30 135 47 41 17 106 42 144 56 107
39 258 120 291 156 45 48 91 127 98 171 10 53 -18 125 -72 189 -24 29 -52 62
-62 74 -10 12 -26 33 -36 48 -9 14 -30 33 -45 40 -15 8 -54 39 -86 68 -32 29
-92 79 -133 111 -41 31 -55 40 -31 19 89 -76 146 -132 140 -138 -14 -14 -349
251 -349 276 0 9 -7 22 -15 29 -8 7 -13 16 -10 20 3 4 -3 14 -12 21 -12 10
-14 10 -9 2 4 -7 4 -13 1 -13 -12 0 -169 124 -159 126 5 1 45 13 89 27 44 14
107 28 140 32 33 4 74 10 90 15 17 5 79 14 139 19 120 12 146 25 146 71 0 43
-21 54 -80 41 -28 -6 -68 -11 -89 -11 -31 0 -40 -4 -44 -22 -5 -18 -8 -19 -21
-9 -9 8 -13 17 -10 22 6 11 10 11 -51 -6 l-50 -14 48 0 c85 -2 46 -43 -58 -60
-86 -15 -157 -35 -400 -112 -276 -88 -275 -87 -275 -78 0 14 44 38 132 74 46
18 101 41 123 51 22 9 83 33 135 51 52 18 84 31 70 28 -14 -3 -51 -11 -82 -18
-32 -6 -58 -15 -58 -19 0 -19 -59 -5 -102 24 -52 36 -69 73 -43 92 9 6 91 40
181 76 91 35 167 67 170 72 3 4 -19 8 -48 8 -42 0 -84 -13 -201 -60 -81 -34
-151 -59 -155 -56 -4 2 -9 -7 -10 -21 -1 -15 -4 -29 -7 -31 -3 -3 -43 34 -90
81 -64 66 -91 87 -111 87 -25 0 -25 -1 24 -57z m533 -415 c57 -51 118 -102
134 -112 17 -11 66 -52 111 -91 44 -40 93 -80 107 -90 59 -38 19 -35 -68 5
-11 5 -85 35 -164 65 -133 51 -146 55 -160 40 -15 -15 -15 -17 1 -29 10 -7
131 -55 270 -106 292 -108 320 -125 429 -261 40 -49 79 -89 86 -89 19 0 11
-24 -9 -28 -9 -2 -123 22 -254 52 -132 30 -299 67 -371 82 -73 15 -131 29
-129 32 3 2 39 -3 81 -12 43 -9 85 -16 94 -15 9 1 -45 14 -119 29 -74 15 -138
26 -142 23 -16 -9 -7 -34 15 -43 18 -8 229 -51 362 -75 35 -6 70 -13 105 -20
24 -5 49 -10 100 -20 216 -40 263 -51 267 -62 7 -17 -40 -92 -82 -133 l-36
-35 -308 3 c-316 4 -344 1 -310 -33 11 -11 69 -15 252 -17 130 -1 237 -5 237
-8 0 -4 -30 -17 -67 -30 -38 -13 -106 -39 -152 -58 -47 -19 -128 -47 -180 -62
-53 -15 -121 -38 -151 -50 -30 -12 -77 -28 -105 -36 -64 -17 -178 -62 -280
-109 -44 -20 -108 -48 -142 -60 -35 -13 -82 -35 -105 -49 l-43 -24 -90 105
c-49 58 -99 119 -109 136 l-19 29 49 -6 c178 -22 585 -57 595 -50 11 7 12 31
0 38 -5 3 -37 8 -72 11 -35 3 -172 14 -304 26 -132 11 -258 18 -280 15 -22 -3
-34 -3 -28 0 9 4 6 15 -11 37 -48 63 -130 367 -99 367 8 0 353 -63 413 -75
143 -30 399 -75 424 -75 19 0 26 5 26 19 0 21 9 19 -241 66 -158 29 -196 31
-89 4 93 -23 63 -20 -269 32 -139 21 -257 39 -262 39 -12 0 -7 62 9 100 26 64
124 220 163 260 l38 39 48 -14 c26 -8 144 -46 262 -85 117 -38 218 -67 222
-64 18 11 9 43 -13 49 -94 27 -458 149 -458 154 0 20 451 281 484 281 6 0 33
-32 60 -71 31 -43 55 -69 65 -67 28 6 23 37 -13 86 -19 26 -36 54 -38 61 -3
11 118 69 147 70 6 1 58 -41 116 -91z m-721 -319 c11 -7 4 -8 -25 -3 -50 8
-58 14 -19 14 16 0 36 -5 44 -11z m1258 -65 c30 -12 44 -34 23 -34 -14 0 -161
68 -161 74 0 6 91 -20 138 -40z m-581 -140 c-3 -3 -12 -4 -19 -1 -8 3 -5 6 6
6 11 1 17 -2 13 -5z m-400 -280 c-3 -3 -12 -4 -19 -1 -8 3 -5 6 6 6 11 1 17
-2 13 -5z m1104 -128 c-28 -30 -100 -69 -187 -102 -38 -14 -104 -41 -147 -61
-44 -19 -116 -45 -160 -58 -113 -31 -407 -136 -525 -186 -129 -56 -342 -130
-342 -119 0 9 109 80 123 80 4 0 74 31 155 69 141 66 307 129 512 193 184 57
410 139 500 182 30 14 64 26 74 26 18 0 18 -1 -3 -24z m-1475 -458 l29 -33
-32 29 c-31 28 -38 36 -30 36 2 0 16 -15 33 -32z m360 -95 l56 -37 -28 -8
c-15 -4 -64 -10 -108 -14 -74 -6 -83 -5 -100 15 -11 12 -17 23 -15 25 9 10
115 56 127 56 7 0 37 -17 68 -37z m-201 -63 c17 -18 17 -20 1 -26 -20 -8 -52
19 -42 35 10 16 21 14 41 -9z m0 -85 c184 -173 248 -217 502 -346 193 -99 373
-226 373 -265 0 -8 10 -14 25 -14 16 0 25 -6 25 -15 0 -10 -9 -15 -27 -14 -38
2 -94 16 -68 18 11 1 15 4 10 10 -16 14 -371 25 -380 11 -19 -31 19 -38 240
-45 152 -4 224 -10 232 -18 19 -18 134 -329 129 -344 -3 -7 2 -13 10 -13 27 0
9 -25 -22 -29 l-29 -4 30 -6 c22 -4 31 -13 33 -30 7 -48 -41 -132 -91 -157
-47 -25 -217 -38 -477 -39 -228 0 -235 -1 -235 -20 0 -18 9 -21 110 -27 61 -4
118 -4 128 -2 9 3 17 4 17 2 0 -2 -53 -59 -119 -127 l-118 -124 -94 -18 -94
-19 -23 28 c-13 15 -58 68 -101 117 -91 107 -136 165 -126 165 3 0 51 -11 106
-25 55 -14 104 -23 109 -20 6 4 10 15 10 25 0 16 -21 23 -137 51 -92 21 -146
39 -161 52 -12 12 -53 66 -89 121 -37 55 -100 137 -140 182 -40 45 -73 85 -73
89 0 3 8 4 18 1 9 -2 55 -7 102 -10 47 -4 108 -8 135 -11 305 -28 326 -27 312
9 -8 20 -24 21 -342 41 l-270 17 -46 48 c-30 31 -59 77 -80 127 -29 66 -34 89
-33 150 1 51 8 84 23 116 33 69 150 198 207 229 l49 27 190 -39 c105 -22 201
-41 215 -44 14 -3 62 -12 107 -22 92 -19 120 -15 104 14 -8 15 -49 27 -193 55
-190 38 -242 45 -173 22 51 -17 29 -18 -76 -4 -96 13 -126 28 -58 30 l44 1
-42 11 c-24 5 -43 13 -43 16 0 8 259 140 275 140 6 0 46 -33 90 -74z m630
-335 c9 -14 -7 -13 -49 5 -20 8 -36 22 -36 30 0 13 6 12 39 -5 22 -11 42 -24
46 -30z m-886 -916 c-12 -15 -15 -14 -32 8 -10 13 -32 49 -48 79 l-30 54 61
-63 c54 -54 60 -64 49 -78z m1396 67 c-22 -44 -26 -38 -7 10 9 23 18 37 20 31
2 -6 -4 -24 -13 -41z m-87 -113 c-9 -26 -81 -51 -171 -59 -106 -10 -241 -36
-277 -55 -33 -16 -70 -53 -225 -223 -172 -188 -224 -229 -350 -274 -128 -45
-196 -64 -265 -72 -30 -4 -99 -15 -152 -27 -54 -11 -103 -18 -110 -15 -26 9
220 97 272 97 10 0 90 25 179 56 l160 56 191 180 c104 99 190 183 190 187 0 4
21 24 46 46 60 49 187 85 308 85 44 0 104 7 131 14 64 18 78 19 73 4z m-1199
-53 c13 -19 61 -78 108 -132 47 -54 94 -110 104 -125 l20 -27 -26 -7 c-15 -4
-30 -3 -34 2 -152 168 -251 299 -244 320 7 21 49 3 72 -31z m344 -347 c-18
-18 -24 -19 -37 -9 -22 18 -11 31 27 31 l31 0 -21 -22z m73 -168 c15 -22 25
-42 23 -44 -8 -8 -81 63 -74 73 11 19 24 12 51 -29z"/>
<path d="M5798 3273 c6 -2 18 -2 25 0 6 3 1 5 -13 5 -14 0 -19 -2 -12 -5z"/>
<path d="M5848 3263 c6 -2 18 -2 25 0 6 3 1 5 -13 5 -14 0 -19 -2 -12 -5z"/>
<path d="M5908 3253 c7 -3 16 -2 19 1 4 3 -2 6 -13 5 -11 0 -14 -3 -6 -6z"/>
<path d="M5958 3243 c7 -3 16 -2 19 1 4 3 -2 6 -13 5 -11 0 -14 -3 -6 -6z"/>
<path d="M6008 3233 c7 -3 16 -2 19 1 4 3 -2 6 -13 5 -11 0 -14 -3 -6 -6z"/>
<path d="M4838 3103 c7 -3 16 -2 19 1 4 3 -2 6 -13 5 -11 0 -14 -3 -6 -6z"/>
<path d="M4888 3093 c6 -2 18 -2 25 0 6 3 1 5 -13 5 -14 0 -19 -2 -12 -5z"/>
<path d="M4938 3083 c7 -3 16 -2 19 1 4 3 -2 6 -13 5 -11 0 -14 -3 -6 -6z"/>
<path d="M4368 1773 c7 -3 16 -2 19 1 4 3 -2 6 -13 5 -11 0 -14 -3 -6 -6z"/>
<path d="M4448 1763 c7 -3 16 -2 19 1 4 3 -2 6 -13 5 -11 0 -14 -3 -6 -6z"/>
<path d="M4513 1753 c9 -2 23 -2 30 0 6 3 -1 5 -18 5 -16 0 -22 -2 -12 -5z"/>
<path d="M4278 1743 c12 -2 30 -2 40 0 9 3 -1 5 -23 4 -22 0 -30 -2 -17 -4z"/>
<path d="M4675 1730 c141 -23 101 -24 -115 -4 -260 23 -254 12 10 -19 261 -31
287 -34 380 -47 36 -5 80 -10 98 -10 29 0 33 3 30 22 -3 22 -12 24 -228 50
-254 30 -340 34 -175 8z m163 -27 c-10 -2 -26 -2 -35 0 -10 3 -2 5 17 5 19 0
27 -2 18 -5z"/>
<path d="M5264 1265 c-10 -24 4 -33 59 -40 28 -4 63 -8 77 -10 14 -2 43 -6 65
-9 22 -3 122 -17 223 -31 283 -40 248 -24 -55 25 -149 25 -270 46 -268 48 2 2
79 -6 172 -17 246 -31 240 -24 -12 14 -259 39 -254 39 -261 20z m69 -12 c-7
-2 -19 -2 -25 0 -7 3 -2 5 12 5 14 0 19 -2 13 -5z"/>
<path d="M5763 1203 c9 -2 25 -2 35 0 9 3 1 5 -18 5 -19 0 -27 -2 -17 -5z"/>
<path d="M5848 1193 c6 -2 18 -2 25 0 6 3 1 5 -13 5 -14 0 -19 -2 -12 -5z"/>
<path d="M5923 1143 c9 -2 23 -2 30 0 6 3 -1 5 -18 5 -16 0 -22 -2 -12 -5z"/>
<path d="M5185 4260 c27 -27 51 -50 54 -50 8 0 -84 98 -94 99 -5 1 13 -21 40
-49z"/>
<path d="M5783 4113 c9 -2 23 -2 30 0 6 3 -1 5 -18 5 -16 0 -22 -2 -12 -5z"/>
<path d="M5718 4103 c6 -2 18 -2 25 0 6 3 1 5 -13 5 -14 0 -19 -2 -12 -5z"/>
<path d="M5650 4090 c-13 -9 -13 -10 0 -9 8 0 24 4 35 9 l20 9 -20 0 c-11 0
-27 -4 -35 -9z"/>
<path d="M5635 3930 c10 -11 20 -20 23 -20 3 0 -3 9 -13 20 -10 11 -20 20 -23
20 -3 0 3 -9 13 -20z"/>
<path d="M5890 3718 c24 -27 45 -48 47 -48 8 0 0 9 -44 50 l-48 45 45 -47z"/>
<path d="M5325 2024 c11 -9 34 -23 50 -31 28 -15 29 -15 16 0 -7 10 -19 17
-26 17 -7 0 -18 7 -25 15 -7 8 -18 15 -24 15 -6 0 -2 -8 9 -16z"/>
<path d="M2338 3 c6 -2 18 -2 25 0 6 3 1 5 -13 5 -14 0 -19 -2 -12 -5z"/>
</g>
</svg>
