<?xml version="1.0" standalone="no"?>
<!DOCTYPE svg PUBLIC "-//W3C//DTD SVG 20010904//EN"
 "http://www.w3.org/TR/2001/REC-SVG-20010904/DTD/svg10.dtd">
<svg version="1.0" xmlns="http://www.w3.org/2000/svg"
 width="10630.000000pt" height="3780.000000pt" viewBox="0 0 10630.000000 3780.000000"
 preserveAspectRatio="xMidYMid meet">

<g transform="translate(0.000000,3780.000000) scale(0.100000,-0.100000)"
fill="#000000" stroke="none">
<path d="M38820 19870 l0 -9110 2000 0 2000 0 0 9110 0 9110 -2000 0 -2000 0
0 -9110z"/>
<path d="M17490 19840 l0 -9110 6445 0 6445 0 0 1685 0 1685 -4440 0 -4440 0
0 7425 0 7425 -2005 0 -2005 0 0 -9110z"/>
<path d="M17370 8795 l0 -895 630 0 630 0 0 165 0 165 -435 0 -435 0 0 730 0
730 -195 0 -195 0 0 -895z"/>
<path d="M22590 9365 l0 -325 -42 47 c-76 82 -178 129 -302 139 -280 24 -506
-149 -587 -452 -31 -112 -31 -324 0 -439 75 -283 254 -445 511 -462 95 -6 166
4 255 38 46 17 75 37 123 86 l62 63 0 -80 0 -80 170 0 170 0 -2 893 -3 892
-177 3 -178 2 0 -325z m-162 -431 c64 -32 115 -89 144 -163 20 -50 23 -73 22
-221 0 -147 -2 -171 -22 -221 -28 -71 -89 -141 -147 -169 -55 -27 -172 -30
-229 -6 -94 39 -164 129 -190 246 -29 127 -15 315 30 401 27 52 87 111 139
135 73 35 182 34 253 -2z"/>
<path d="M26967 9683 c-4 -3 -7 -406 -7 -895 l0 -888 180 0 180 0 0 382 c0
423 5 480 53 560 41 68 99 99 197 106 117 8 189 -33 227 -128 16 -40 18 -92
21 -482 l3 -438 179 0 180 0 0 413 c0 503 -10 611 -68 723 -26 50 -95 116
-151 144 -133 66 -338 64 -474 -7 -39 -19 -104 -80 -139 -127 l-28 -39 0 341
0 342 -173 0 c-96 0 -177 -3 -180 -7z"/>
<path d="M28460 9540 l0 -150 175 0 175 0 0 150 0 150 -175 0 -175 0 0 -150z"/>
<path d="M38820 8790 l0 -890 195 0 195 0 0 890 0 890 -195 0 -195 0 0 -890z"/>
<path d="M45830 9540 l0 -140 175 0 175 0 0 140 0 140 -175 0 -175 0 0 -140z"/>
<path d="M41098 9388 l-3 -193 -107 -3 -108 -3 0 -114 0 -114 108 -3 107 -3 5
-441 5 -441 30 -49 c47 -75 128 -113 271 -127 63 -6 150 -7 207 -3 l97 8 0
134 0 133 -89 0 c-99 -1 -138 11 -158 51 -10 19 -13 114 -13 383 l0 357 130 0
130 0 0 115 0 115 -130 0 -130 0 0 195 0 195 -175 0 -175 0 -2 -192z"/>
<path d="M46558 9388 l-3 -193 -107 -3 -108 -3 0 -114 0 -114 108 -3 107 -3 5
-441 5 -441 30 -49 c47 -75 128 -113 271 -127 63 -6 150 -7 207 -3 l97 8 0
134 0 133 -89 0 c-99 -1 -138 11 -158 51 -10 19 -13 114 -13 383 l0 357 130 0
130 0 0 115 0 115 -130 0 -130 0 0 195 0 195 -175 0 -175 0 -2 -192z"/>
<path d="M19265 9214 c-186 -40 -354 -170 -433 -335 -57 -118 -74 -201 -74
-339 2 -333 169 -567 462 -647 90 -24 300 -24 389 0 194 53 315 162 390 355
l21 52 -154 0 -154 0 -21 -34 c-26 -41 -76 -80 -137 -108 -34 -15 -68 -20
-128 -20 -189 0 -287 86 -312 271 l-7 51 468 0 467 0 -5 118 c-6 138 -23 207
-79 322 -122 251 -398 376 -693 314z m274 -278 c63 -34 111 -103 137 -198 l12
-48 -289 0 c-233 0 -289 3 -289 13 0 7 7 36 15 63 22 75 67 128 138 164 58 30
67 31 152 28 61 -3 101 -10 124 -22z"/>
<path d="M20673 9216 c-236 -45 -374 -150 -419 -318 -28 -105 -39 -98 161 -98
l175 0 6 28 c11 54 27 83 60 112 43 37 90 50 189 50 132 -1 198 -45 211 -144
12 -82 -26 -130 -121 -155 -22 -6 -110 -19 -195 -30 -326 -42 -443 -97 -508
-240 -37 -80 -42 -203 -13 -299 37 -122 120 -195 266 -232 177 -45 406 -7 532
90 l53 39 6 -27 c3 -15 9 -40 13 -57 l7 -30 178 -3 178 -2 -6 22 c-4 13 -12
39 -18 58 -6 21 -13 222 -17 510 -6 469 -6 476 -29 522 -27 54 -92 117 -152
148 -114 58 -396 87 -557 56z m384 -801 c-8 -172 -48 -243 -161 -290 -50 -21
-200 -22 -248 -2 -68 29 -108 105 -94 180 16 86 85 135 220 157 146 24 216 39
243 53 15 8 32 15 37 16 5 1 7 -48 3 -114z"/>
<path d="M23705 9223 c-168 -22 -363 -149 -449 -292 -165 -274 -128 -670 82
-880 113 -112 249 -168 432 -178 199 -11 384 50 495 164 52 52 145 213 145
249 0 11 -29 14 -155 14 -96 0 -155 -4 -155 -10 0 -18 -72 -90 -114 -115 -82
-48 -237 -50 -330 -5 -26 12 -60 38 -76 58 -33 40 -70 144 -70 198 l0 34 465
0 465 0 0 79 c0 152 -45 311 -122 429 -125 192 -358 289 -613 255z m198 -274
c76 -21 153 -120 172 -221 l7 -38 -287 0 -288 0 7 42 c15 93 87 182 171 212
48 17 165 20 218 5z"/>
<path d="M25307 9219 c-110 -26 -232 -116 -288 -214 l-29 -50 0 118 0 117
-170 0 -170 0 0 -645 0 -645 175 0 175 0 0 293 c0 322 8 425 40 509 26 69 86
134 155 168 44 22 63 25 168 25 l117 0 0 161 c0 159 0 162 -22 168 -32 8 -105
6 -151 -5z"/>
<path d="M26020 9223 c-233 -31 -373 -129 -415 -290 -34 -129 -9 -246 67 -320
63 -62 153 -98 375 -153 230 -58 294 -81 328 -122 55 -65 22 -158 -70 -203
-85 -42 -231 -36 -311 14 -46 28 -85 84 -91 131 l-6 40 -168 0 -169 0 0 -23
c0 -41 31 -141 57 -186 84 -143 253 -225 493 -238 328 -18 564 97 627 307 25
83 23 202 -6 267 -56 126 -178 189 -501 258 -69 15 -143 34 -165 43 -98 37
-139 99 -111 166 22 52 77 75 182 76 139 0 227 -48 240 -131 l7 -39 170 0 170
0 -7 40 c-27 170 -151 295 -341 345 -60 16 -287 28 -355 18z"/>
<path d="M29730 9224 c-52 -10 -147 -48 -187 -76 -24 -16 -58 -49 -78 -75
l-35 -46 0 82 0 81 -170 0 -170 0 0 -870 0 -870 180 0 180 0 0 305 0 304 47
-50 c55 -59 160 -114 248 -130 78 -15 205 -5 279 21 176 60 299 208 357 425
32 121 30 316 -4 447 -75 286 -259 444 -527 453 -52 2 -106 2 -120 -1z m138
-290 c119 -59 182 -192 182 -385 0 -202 -56 -326 -175 -385 -116 -56 -269 -26
-350 68 -102 120 -122 397 -40 565 57 116 131 162 261 163 56 0 80 -5 122 -26z"/>
<path d="M40156 9218 c-109 -20 -217 -90 -284 -183 l-21 -30 -1 93 0 92 -165
0 -165 0 0 -645 0 -645 174 0 175 0 3 418 c3 410 4 418 27 475 42 105 121 157
239 157 79 0 128 -18 167 -61 65 -72 68 -95 73 -566 l4 -423 175 0 175 0 -5
473 c-5 509 -9 552 -60 653 -79 155 -290 235 -511 192z"/>
<path d="M42360 9220 c-182 -29 -363 -150 -447 -300 -85 -149 -115 -359 -79
-541 49 -243 213 -421 447 -485 88 -24 299 -25 388 -1 192 52 315 164 390 355
l21 52 -153 0 -152 0 -35 -47 c-26 -35 -54 -58 -104 -83 -64 -32 -76 -35 -155
-34 -162 1 -258 72 -297 219 -8 28 -14 62 -14 78 l0 27 466 0 467 0 -6 118
c-6 139 -23 209 -78 320 -71 146 -198 256 -348 302 -73 23 -230 33 -311 20z
m236 -284 c36 -17 61 -38 82 -68 33 -49 76 -163 67 -179 -4 -5 -120 -9 -286
-9 -235 0 -281 2 -285 14 -9 22 22 117 50 154 29 39 89 85 131 100 17 6 66 11
110 11 64 1 90 -4 131 -23z"/>
<path d="M43720 9219 c-152 -25 -296 -139 -369 -291 -53 -112 -71 -200 -71
-348 0 -196 40 -337 130 -456 180 -239 635 -241 792 -4 16 24 17 20 17 -94 2
-248 -74 -358 -256 -373 -129 -11 -231 36 -273 124 l-25 52 -174 1 -174 0 7
-46 c20 -147 130 -262 316 -328 82 -30 90 -31 260 -31 200 0 245 8 368 66 99
48 186 128 225 209 55 113 57 138 57 843 l0 647 -165 0 -165 0 -1 -87 c0 -86
0 -87 -17 -63 -103 152 -270 213 -482 179z m315 -278 c95 -43 153 -130 176
-264 27 -161 -8 -298 -100 -387 -63 -63 -111 -82 -201 -81 -72 0 -123 21 -173
69 -75 72 -107 166 -107 314 0 178 57 292 175 348 54 26 174 27 230 1z"/>
<path d="M45495 9216 c-114 -29 -231 -114 -286 -211 l-29 -50 0 118 0 117
-170 0 -170 0 0 -645 0 -645 175 0 175 0 0 308 c0 169 5 337 10 374 21 144 80
236 185 288 45 22 63 25 168 25 l117 0 0 161 0 162 -31 6 c-44 9 -86 6 -144
-8z"/>
<path d="M28460 8545 l0 -645 175 0 175 0 0 645 0 645 -175 0 -175 0 0 -645z"/>
<path d="M45830 8545 l0 -645 175 0 175 0 0 645 0 645 -175 0 -175 0 0 -645z"/>
<path d="M47427 8563 c213 -569 234 -633 230 -676 -4 -52 -26 -88 -71 -121
-25 -19 -41 -21 -147 -20 l-119 1 0 -142 0 -143 114 -7 c276 -17 430 48 510
218 20 43 566 1503 566 1514 0 2 -82 2 -182 1 l-182 -3 -140 -438 c-77 -240
-143 -434 -146 -430 -4 5 -71 203 -149 441 l-142 432 -188 0 -188 0 234 -627z"/>
</g>
</svg>
