<?xml version="1.0" standalone="no"?>
<!DOCTYPE svg PUBLIC "-//W3C//DTD SVG 20010904//EN"
 "http://www.w3.org/TR/2001/REC-SVG-20010904/DTD/svg10.dtd">
<svg version="1.0" xmlns="http://www.w3.org/2000/svg"
 width="256.000000pt" height="256.000000pt" viewBox="0 0 256.000000 256.000000"
 preserveAspectRatio="xMidYMid meet">

<g transform="translate(0.000000,256.000000) scale(0.100000,-0.100000)"
fill="#000000" stroke="none">
<path d="M690 2011 l0 -340 -45 -36 c-56 -46 -144 -162 -183 -240 -115 -231
-117 -523 -5 -750 137 -276 410 -445 719 -445 210 0 400 77 553 223 146 142
230 324 247 537 l7 93 98 170 c54 94 101 182 104 198 4 15 0 43 -9 63 -19 45
-63 66 -139 66 l-54 0 -6 113 c-6 133 -24 189 -78 251 -72 82 -162 116 -306
116 l-63 0 0 160 0 160 -420 0 -420 0 0 -339z m305 -541 c13 -14 16 -27 10
-52 -4 -18 -9 -80 -12 -138 l-4 -105 55 -55 56 -54 34 33 c19 18 36 46 40 62
11 55 95 65 118 13 17 -37 0 -77 -40 -90 -19 -6 -71 -48 -122 -99 l-90 -90 0
-147 0 -148 66 0 66 0 -5 58 c-3 31 -8 72 -12 90 -14 62 57 101 102 56 27 -27
29 -52 8 -80 -10 -13 -14 -46 -15 -111 l0 -93 -105 0 -105 0 0 -38 c0 -21 5
-43 11 -49 5 -5 11 -25 11 -43 1 -35 -29 -70 -61 -70 -46 0 -82 62 -55 97 10
14 13 75 14 263 l0 244 42 43 42 43 -66 68 c-66 66 -67 68 -70 127 l-3 60 -66
3 -67 3 -56 -63 c-31 -35 -56 -72 -56 -82 0 -29 -30 -56 -62 -56 -34 0 -68 31
-68 63 0 25 34 63 61 69 9 1 44 36 78 76 l63 72 89 0 c49 0 89 3 89 8 -1 4 -7
18 -15 32 -20 35 -18 57 5 80 25 25 72 26 95 0z m-171 -421 c27 -21 36 -71 16
-84 -6 -3 -10 -50 -10 -106 l0 -99 -55 0 -55 0 0 -48 c0 -27 7 -63 15 -79 16
-32 9 -73 -16 -89 -18 -11 -68 -7 -85 7 -16 13 -19 85 -4 94 6 3 10 31 10 61
l0 54 -74 0 c-70 0 -74 1 -80 24 -3 13 -9 31 -12 40 -5 14 10 16 135 16 l141
0 0 53 c-1 30 -7 60 -15 71 -21 28 -18 53 10 81 29 30 45 31 79 4z m772 -387
c6 -4 16 -17 23 -30 17 -31 -5 -74 -44 -87 -17 -5 -47 -23 -67 -38 -36 -28
-37 -31 -40 -99 l-3 -71 -37 -13 -38 -13 0 98 0 98 55 51 c30 28 55 57 55 63
0 36 64 63 96 41z"/>
</g>
</svg>
