<svg xmlns="http://www.w3.org/2000/svg" viewBox="0.0 0.0 24.0 24.0" height="200px" width="200px"><path fill="black" fill-opacity="1.0"  filling="0" d="M13.49897289276123 2.7380056381225586 C10.836651802062988 2.7380056381225586 8.43625545501709 3.8608179092407227 6.747360706329346 5.659414768218994 L13.49897289276123 12.000284194946289 L6.548649787902832 18.122032165527344 C8.246332168579102 20.047054290771484 10.72865104675293 21.261995315551758 13.49897289276123 21.261995315551758 C18.612712860107422 21.261995315551758 22.760684967041016 17.116859436035156 22.760684967041016 12.000284194946289 C22.760684967041016 6.8859758377075195 18.612712860107422 2.7380056381225586 13.49897289276123 2.7380056381225586 Z M2.788179397583008 11.427397727966309 C3.6419811248779297 11.427397727966309 4.3361921310424805 12.12132453918457 4.3361921310424805 12.975692749023438 C4.3361921310424805 13.829778671264648 3.6419811248779297 14.523704528808594 2.788179397583008 14.523704528808594 C1.9338111877441406 14.523704528808594 1.2396001815795898 13.829777717590332 1.2396001815795898 12.975692749023438 C1.2396001815795898 12.121323585510254 1.9338111877441406 11.427397727966309 2.788179397583008 11.427397727966309 Z M5.54716157913208 8.834242820739746 C6.401247501373291 8.834242820739746 7.096024513244629 9.528736114501953 7.096024513244629 10.382822036743164 C7.096024513244629 11.237190246582031 6.401247501373291 11.93111801147461 5.54716157913208 11.93111801147461 C4.693359375 11.93111801147461 3.998866081237793 11.237190246582031 3.998866081237793 10.382822036743164 C3.998866081237793 9.528736114501953 4.693359375 8.834242820739746 5.54716157913208 8.834242820739746 Z M8.858054161071777 10.523421287536621 C9.712139129638672 10.523421287536621 10.406633377075195 11.217348098754883 10.406633377075195 12.071433067321777 C10.406633377075195 12.925802230834961 9.712139129638672 13.619729042053223 8.858054161071777 13.619729042053223 C8.003968238830566 13.619729042053223 7.30975866317749 12.925802230834961 7.30975866317749 12.071433067321777 C7.30975866317749 11.217348098754883 8.003968238830566 10.523421287536621 8.858054161071777 10.523421287536621 Z M13.788675308227539 4.782084941864014 C14.973566055297852 4.782084941864014 15.933952331542969 5.741903781890869 15.933952331542969 6.9270782470703125 C15.933952331542969 8.111968994140625 14.973566055297852 9.072355270385742 13.788675308227539 9.072355270385742 C12.603784561157227 9.072355270385742 11.643682479858398 8.111968994140625 11.643682479858398 6.9270782470703125 C11.643682479858398 5.741903781890869 12.603784561157227 4.782084941864014 13.788675308227539 4.782084941864014 Z"></path></svg>