<?xml version="1.0" standalone="no"?>
<!DOCTYPE svg PUBLIC "-//W3C//DTD SVG 20010904//EN"
 "http://www.w3.org/TR/2001/REC-SVG-20010904/DTD/svg10.dtd">
<svg version="1.0" xmlns="http://www.w3.org/2000/svg"
 width="1700.000000pt" height="760.000000pt" viewBox="0 0 1700.000000 760.000000"
 preserveAspectRatio="xMidYMid meet">

<g transform="translate(0.000000,760.000000) scale(0.100000,-0.100000)"
fill="#000000" stroke="none">
<path d="M8587 5475 c-3 -19 -22 -70 -41 -112 -73 -161 -80 -256 -29 -377 20
-47 22 -61 11 -67 -27 -16 -82 -59 -74 -59 13 0 96 61 96 70 0 5 -9 33 -20 61
-13 31 -20 69 -18 92 3 42 23 62 31 30 2 -11 7 -2 11 22 12 64 26 105 66 195
39 88 63 185 40 164 -13 -13 -50 -7 -50 7 0 5 -4 9 -9 9 -4 0 -11 -16 -14 -35z"/>
<path d="M8655 5004 c-51 -34 -69 -52 -29 -29 35 20 82 54 74 55 -3 0 -23 -12
-45 -26z"/>
<path d="M8249 4821 c-95 -26 -142 -58 -204 -140 -57 -75 -190 -318 -236 -432
-55 -135 -47 -198 48 -353 53 -86 100 -150 75 -101 -5 11 -30 54 -54 95 -56
96 -75 138 -80 175 -3 27 2 32 49 56 l52 26 23 -24 c36 -39 127 -83 213 -103
72 -17 284 -42 294 -34 2 2 -25 34 -61 72 -58 61 -238 286 -238 296 0 23 325
10 458 -18 35 -8 60 -10 55 -6 -4 5 -55 17 -113 27 -111 19 -425 26 -485 10
-16 -4 -25 -4 -19 0 6 4 16 22 22 38 28 80 102 246 130 295 26 45 44 62 104
98 78 45 71 50 -33 23z"/>
<path d="M9063 4728 c8 -29 -29 -154 -78 -273 -42 -102 -46 -108 -98 -146 -32
-23 -43 -26 -63 -18 -42 16 -41 9 2 -14 23 -12 58 -31 78 -41 l36 -20 30 35
c39 45 200 364 207 409 5 34 3 36 -49 63 -64 33 -72 34 -65 5z"/>
<path d="M8698 4313 c6 -2 18 -2 25 0 6 3 1 5 -13 5 -14 0 -19 -2 -12 -5z"/>
<path d="M8572 3773 c-19 -15 -52 -30 -75 -34 l-42 -6 52 -2 52 -1 -34 -72
c-19 -40 -35 -78 -35 -84 0 -16 -55 -192 -74 -239 -20 -48 -68 -99 -107 -116
-47 -19 -35 -32 23 -25 28 4 55 9 60 12 36 22 234 335 274 433 30 72 31 107 2
122 -13 7 -29 18 -36 26 -18 17 -21 17 -60 -14z"/>
<path d="M7640 3726 c-70 -20 -103 -41 -157 -100 -59 -64 -122 -169 -186 -311
-62 -136 -73 -196 -52 -276 17 -68 57 -144 105 -199 22 -25 18 -16 -14 34 -62
94 -76 166 -23 120 73 -65 154 -84 367 -83 160 0 305 11 318 24 4 3 -60 72
-143 151 l-150 145 -107 6 c-107 6 -108 6 -108 31 0 31 53 216 87 302 29 75
51 102 112 141 38 25 41 29 20 28 -13 0 -44 -6 -69 -13z"/>
<path d="M8018 3223 c7 -3 16 -2 19 1 4 3 -2 6 -13 5 -11 0 -14 -3 -6 -6z"/>
<path d="M8120 2797 c0 -4 7 -22 16 -39 9 -16 12 -28 7 -25 -13 8 -111 -28
-145 -53 -17 -13 -52 -29 -77 -36 -44 -12 -42 -12 43 -7 l88 6 -7 -24 c-4 -13
-16 -44 -26 -68 -10 -24 -19 -50 -19 -58 0 -24 -89 -288 -102 -305 -7 -8 -38
-35 -68 -58 -55 -43 -55 -43 -20 -36 85 17 100 27 141 88 51 74 176 351 196
433 20 79 18 116 -7 157 -11 18 -20 29 -20 25z"/>
<path d="M7727 2633 c18 -2 50 -2 70 0 21 2 7 4 -32 4 -38 0 -55 -2 -38 -4z"/>
<path d="M7078 2103 c7 -3 16 -2 19 1 4 3 -2 6 -13 5 -11 0 -14 -3 -6 -6z"/>
<path d="M7218 2093 c7 -3 16 -2 19 1 4 3 -2 6 -13 5 -11 0 -14 -3 -6 -6z"/>
</g>
</svg>
