<svg xmlns="http://www.w3.org/2000/svg" viewBox="0 0 200 200"><defs><style>.cls-1,.cls-2,.cls-5,.cls-6{fill:none;stroke-linecap:round;stroke-linejoin:round;}.cls-1,.cls-5,.cls-6{stroke:#0e244c;}.cls-1{stroke-width:2.5px;}.cls-2{stroke:#ffbf00;stroke-width:9px;}.cls-3{font-size:20.82px;fill:#0e244c;font-family:Poppins-Bold, Poppins;font-weight:700;}.cls-4,.cls-6{opacity:0.5;}.cls-5,.cls-6{stroke-width:0.75px;stroke-dasharray:1 2;}</style></defs><title>head-to-tail-schema</title><g id="Layer_10" data-name="Layer 10"><path class="cls-1" d="M155.79,64.13a64.8,64.8,0,0,0-12.29-16.2"/><path class="cls-1" d="M163,87.76a64.67,64.67,0,0,0-1.7-9.52"/><path class="cls-1" d="M147,137.15a64.47,64.47,0,0,0,11.69-18.85"/><path class="cls-1" d="M126.27,152.64a64.86,64.86,0,0,0,9.44-5.45"/><path class="cls-1" d="M75,154a61.3,61.3,0,0,0,7.08,2.38"/><path class="cls-1" d="M45.53,130.09a65.72,65.72,0,0,0,4.34,5.76"/><path class="cls-1" d="M35.12,101.68a63.9,63.9,0,0,0,3.54,14.93"/><path class="cls-1" d="M44.76,59.84A63.46,63.46,0,0,0,39.3,70.47"/><path class="cls-2" d="M108.25,30.73A65.32,65.32,0,0,0,99,30.06a63.77,63.77,0,0,0-9.23.67"/><path class="cls-1" d="M146.76,42.71a15.61,15.61,0,1,1-9.09-20.12,15.61,15.61,0,0,1,9.09,20.12"/><path class="cls-1" d="M72.4,62.41A22.24,22.24,0,1,1,78.77,31.6,22.23,22.23,0,0,1,72.4,62.41"/><path class="cls-1" d="M162.6,119a15.62,15.62,0,1,1,16.33-14.87A15.61,15.61,0,0,1,162.6,119"/><path class="cls-1" d="M136.77,148.23a7.58,7.58,0,1,1,10.65-1.18,7.59,7.59,0,0,1-10.65,1.18"/><path class="cls-1" d="M82.87,162.05a22.24,22.24,0,1,1,27.33,15.57,22.23,22.23,0,0,1-27.33-15.57"/><path class="cls-1" d="M46.75,140.91A15.62,15.62,0,1,1,55.85,161a15.61,15.61,0,0,1-9.1-20.13"/><path class="cls-1" d="M37.77,117.1a7.57,7.57,0,1,1-2.17,10.49,7.57,7.57,0,0,1,2.17-10.49"/><path class="cls-1" d="M158.75,63.68a7.57,7.57,0,1,1-7.92,7.21,7.57,7.57,0,0,1,7.92-7.21"/><path class="cls-1" d="M46.43,73.91a15.61,15.61,0,1,1-21.95,2.43,15.61,15.61,0,0,1,22-2.43"/><text class="cls-3" transform="translate(52.36 50.53)">N</text><text class="cls-3" transform="translate(124.22 44.39)">C</text><g class="cls-4"><path class="cls-5" d="M68,64.92c5.37-2.26,6.33-13.45,2.14-25s-12-19.06-17.33-16.8"/><path class="cls-5" d="M81.28,36.43c-2.26-5.37-13.45-6.33-25-2.13s-19.06,12-16.8,17.32"/></g><path class="cls-6" d="M96.52,135.08c-5.37,2.26-6.33,13.45-2.13,25s12,19.06,17.32,16.8"/><path class="cls-6" d="M83.22,163.57c2.27,5.37,13.46,6.33,25,2.13s19.06-11.95,16.79-17.32"/><g class="cls-4"><path class="cls-5" d="M31.13,71.1c-3.82,1.61-4.5,9.56-1.52,17.77s8.5,13.55,12.32,11.94"/><path class="cls-5" d="M21.67,91.36c1.61,3.82,9.57,4.5,17.78,1.51S53,84.38,51.39,80.56"/></g><g class="cls-4"><path class="cls-5" d="M126.61,22.2c-3.82,1.61-4.5,9.57-1.52,17.77s8.5,13.55,12.32,11.94"/><path class="cls-5" d="M117.15,42.46c1.61,3.82,9.57,4.5,17.78,1.52s13.55-8.5,11.94-12.32"/></g><path class="cls-6" d="M168.58,118.51c3.82-1.61,4.5-9.57,1.52-17.78s-8.5-13.55-12.32-11.94"/><path class="cls-6" d="M148.33,109.05c1.6,3.82,9.56,4.5,17.77,1.52s13.55-8.5,11.94-12.32"/><path class="cls-6" d="M66.62,161.43c3.82-1.61,4.5-9.57,1.52-17.77s-8.5-13.56-12.32-11.95"/><path class="cls-6" d="M46.36,152c1.61,3.82,9.57,4.5,17.77,1.52s13.55-8.5,11.94-12.32"/><path class="cls-6" d="M44.68,130.86c1.89-.79,2.23-4.74.75-8.81s-4.21-6.72-6.11-5.92"/><path class="cls-6" d="M49.37,120.82c-.8-1.9-4.74-2.23-8.81-.76s-6.73,4.22-5.93,6.11"/><path class="cls-6" d="M155.79,63.8c-1.9.8-2.23,4.74-.75,8.81s4.21,6.73,6.11,5.93"/><path class="cls-6" d="M165.84,68.49c-.8-1.89-4.75-2.23-8.82-.75S150.3,72,151.1,73.85"/><path class="cls-6" d="M138.51,134.87c-1.89.8-2.23,4.75-.75,8.82s4.22,6.72,6.11,5.92"/><path class="cls-6" d="M148.56,139.57c-.8-1.9-4.74-2.24-8.81-.76s-6.72,4.22-5.93,6.11"/></g></svg>