<svg xmlns="http://www.w3.org/2000/svg" viewBox="0.0 0.0 24.0 24.0" height="200px" width="200px"><path fill="black" fill-opacity="1.0"  filling="0" d="M8.21448040008545 12.014400482177734 C8.082720756530762 10.982160568237305 7.918320178985596 10.02384090423584 7.889280319213867 9.128880500793457 C7.887120723724365 8.905441284179688 7.868160247802734 8.685600280761719 7.882560729980469 8.471760749816895 C7.895040035247803 8.258161544799805 7.90824031829834 8.049601554870605 7.921679973602295 7.844160556793213 C7.931519985198975 7.639200687408447 7.9802398681640625 7.444080829620361 8.007359504699707 7.249200344085693 C8.045280456542969 7.057200908660889 8.055120468139648 6.865440845489502 8.115360260009766 6.689040660858154 C8.222399711608887 6.33336067199707 8.28816032409668 5.9851202964782715 8.415359497070312 5.67840051651001 C8.535360336303711 5.370000839233398 8.649359703063965 5.080080509185791 8.754240036010742 4.810560703277588 C9.021598815917969 4.299360752105713 9.220080375671387 3.8462400436401367 9.431279182434082 3.507841110229492 C9.850318908691406 2.8272008895874023 10.071839332580566 2.464080810546875 10.071839332580566 2.464080810546875 C10.071839332580566 2.464080810546875 9.84407901763916 2.824080467224121 9.417598724365234 3.5001611709594727 C9.202558517456055 3.836880683898926 8.998078346252441 4.287120819091797 8.723038673400879 4.796401023864746 C8.614078521728516 5.066161155700684 8.496718406677246 5.354161262512207 8.370477676391602 5.662801265716553 C8.240158081054688 5.969041347503662 8.169357299804688 6.318241119384766 8.056318283081055 6.6748809814453125 C7.99487829208374 6.8517608642578125 7.981438159942627 7.044960975646973 7.941598415374756 7.237680912017822 C7.911598205566406 7.432800769805908 7.858558177947998 7.629601001739502 7.846798419952393 7.836481094360352 C7.83167839050293 8.041681289672852 7.8153581619262695 8.253360748291016 7.799037933349609 8.468160629272461 C7.7839179039001465 8.685120582580566 7.798798084259033 8.906400680541992 7.797837734222412 9.131760597229004 C7.817038059234619 10.035120964050293 7.9687180519104 11.00040054321289 8.086077690124512 12.030241012573242 C8.1861572265625 12.894001007080078 8.252158164978027 13.52328109741211 8.136238098144531 14.472000122070312 C8.192157745361328 14.466240882873535 8.242318153381348 14.473441123962402 8.297517776489258 14.468160629272461 C8.398320198059082 13.511520385742188 8.322479248046875 12.872640609741211 8.21448040008545 12.014400482177734 Z"></path>
<path fill="black" fill-opacity="1.0"  filling="0" d="M5.291280269622803 22.09151840209961 C5.381280422210693 22.185598373413086 5.319120407104492 22.117679595947266 5.341440200805664 22.140239715576172 L5.345760345458984 22.144798278808594 C5.349120140075684 22.147918701171875 5.349600315093994 22.15007972717285 5.346480369567871 22.156078338623047 C5.357280254364014 22.169757843017578 5.373120307922363 22.21367645263672 5.363280296325684 22.241758346557617 C5.376240253448486 22.26839828491211 5.352720260620117 22.311359405517578 5.351759910583496 22.318557739257812 C5.331600189208984 22.348079681396484 5.376719951629639 22.293838500976562 5.45088005065918 22.237918853759766 C5.432400226593018 22.219921112060547 5.410319805145264 22.197837829589844 5.392079830169678 22.184879302978516 L5.291280269622803 22.09151840209961 Z"></path>
<path fill="black" fill-opacity="1.0"  filling="0" d="M13.231439590454102 15.418318748474121 C13.446000099182129 15.432718276977539 13.335840225219727 15.447359085083008 13.553279876708984 15.45695972442627 C13.548480033874512 15.381359100341797 13.547279357910156 15.306480407714844 13.53887939453125 15.23136043548584 C13.53384017944336 15.157200813293457 13.52135944366455 15.082079887390137 13.513679504394531 15.008880615234375 C13.318559646606445 15.001199722290039 13.45128059387207 14.990880012512207 13.258560180664062 14.979599952697754 C12.89352035522461 14.959440231323242 12.817920684814453 14.955120086669922 12.455280303955078 14.925600051879883 C12.439199447631836 15.064801216125488 12.422160148620605 15.205920219421387 12.403679847717285 15.346320152282715 C12.773759841918945 15.382080078125 12.857039451599121 15.392640113830566 13.231439590454102 15.418318748474121 Z"></path>
<path fill="black" fill-opacity="1.0"  filling="0" d="M20.918880462646484 10.780320167541504 C20.34000015258789 12.310079574584961 19.349040985107422 13.687919616699219 17.90880012512207 14.357999801635742 C16.924081802368164 14.837759017944336 16.183679580688477 14.98583984375 15.08568000793457 15.006718635559082 C15.090240478515625 15.052078247070312 15.120241165161133 15.358078956604004 15.127201080322266 15.46343994140625 C15.427921295166016 15.462240219116211 15.376080513000488 15.456480026245117 15.67944049835205 15.429840087890625 C16.50551986694336 15.361199378967285 17.345760345458984 15.174240112304688 18.124801635742188 14.809920310974121 C18.903841018676758 14.449919700622559 19.60655975341797 13.898880004882812 20.150402069091797 13.225680351257324 C20.279762268066406 13.053360939025879 20.418720245361328 12.885120391845703 20.5401611328125 12.708480834960938 L20.88384246826172 12.159120559692383 L21.186241149902344 11.577600479125977 C21.279361724853516 11.384400367736816 21.354000091552734 11.192880630493164 21.439922332763672 10.9987211227417 C21.6720027923584 10.450080871582031 21.83808135986328 9.887041091918945 21.970081329345703 9.316320419311523 C21.779041290283203 9.26400089263916 21.590641021728516 9.216239929199219 21.405120849609375 9.168479919433594 C21.281761169433594 9.721199989318848 21.11952018737793 10.262880325317383 20.918880462646484 10.780320167541504 Z"></path>
<path fill="black" fill-opacity="1.0"  filling="0" d="M8.009759902954102 16.205039978027344 C8.058960914611816 16.05120086669922 8.09160041809082 15.891361236572266 8.121360778808594 15.7324800491333 C8.1472806930542 15.597119331359863 8.207759857177734 15.347999572753906 8.207759857177734 15.347999572753906 L8.027040481567383 15.34511947631836 C8.027040481567383 15.34511947631836 7.975440979003906 15.569040298461914 7.9483208656311035 15.704878807067871 C7.9188008308410645 15.852958679199219 7.886880874633789 16.00391960144043 7.835760593414307 16.149837493896484 C7.7450408935546875 16.433277130126953 7.654560565948486 16.720077514648438 7.561200141906738 17.009517669677734 C7.342080116271973 17.566797256469727 7.002960205078125 18.087596893310547 6.5724005699157715 18.536157608032227 C6.144240379333496 18.992399215698242 5.5855207443237305 19.33487892150879 4.993920803070068 19.57295799255371 C4.840321063995361 19.622398376464844 4.698000907897949 19.691518783569336 4.535760879516602 19.72751808166504 L4.039920330047607 19.829517364501953 C3.7392005920410156 19.867919921875 3.397920608520508 19.87175941467285 3.1341609954833984 19.720317840576172 C2.8704004287719727 19.573198318481445 2.7268800735473633 19.278718948364258 2.738640785217285 18.962158203125 C2.749680519104004 18.645118713378906 2.8648815155029297 18.325918197631836 3.0288009643554688 18.030960083007812 C3.367680549621582 17.4410400390625 3.890880584716797 16.943279266357422 4.470000743865967 16.523759841918945 C4.767360687255859 16.3231201171875 5.05224084854126 16.117919921875 5.387041091918945 15.944879531860352 C5.714400768280029 15.758638381958008 6.024240970611572 15.598798751831055 6.372480392456055 15.480239868164062 C6.904560565948486 15.2937593460083 7.47144079208374 15.191519737243652 8.052000999450684 15.143759727478027 C8.108160972595215 15.139199256896973 8.165760040283203 15.137519836425781 8.222160339355469 15.133679389953613 C8.333520889282227 15.126239776611328 8.445361137390137 15.118080139160156 8.557440757751465 15.113759994506836 C9.333120346069336 15.091198921203613 9.845760345458984 15.11832046508789 10.64352035522461 15.187919616699219 C10.661041259765625 15.052799224853516 10.67496109008789 14.916719436645508 10.68696117401123 14.780879974365234 C9.877679824829102 14.720159530639648 9.347761154174805 14.700959205627441 8.542320251464844 14.735759735107422 C8.451360702514648 14.739119529724121 8.360160827636719 14.748720169067383 8.268481254577637 14.75447940826416 C8.213521003723145 14.758318901062012 8.1580810546875 14.76215934753418 8.103120803833008 14.767439842224121 C7.4726409912109375 14.822159767150879 6.845761299133301 14.934478759765625 6.253681182861328 15.152399063110352 C5.890801429748535 15.278879165649414 5.536561012268066 15.467999458312988 5.221921443939209 15.653280258178711 C4.8991217613220215 15.825360298156738 4.583041191101074 16.052640914916992 4.27752161026001 16.265281677246094 C3.682082176208496 16.710481643676758 3.1370420455932617 17.237281799316406 2.7710418701171875 17.887441635131836 C2.5975217819213867 18.21575927734375 2.465041160583496 18.575281143188477 2.457601547241211 18.962642669677734 C2.4432010650634766 19.345922470092773 2.646481513977051 19.76736068725586 3.0031213760375977 19.953121185302734 C3.3554420471191406 20.142723083496094 3.7344017028808594 20.130481719970703 4.093441963195801 20.078643798828125 L4.586881637573242 19.97040367126465 C4.750561237335205 19.9317626953125 4.913761138916016 19.855443954467773 5.075761795043945 19.799762725830078 C5.707441329956055 19.536964416503906 6.282481670379639 19.172164916992188 6.726721286773682 18.68856430053711 C7.17384147644043 18.210485458374023 7.520881652832031 17.662084579467773 7.741201400756836 17.076004028320312 C7.8316802978515625 16.782958984375 7.920479774475098 16.491600036621094 8.009759902954102 16.205039978027344 Z"></path>
<path fill="black" fill-opacity="1.0"  filling="0" d="M13.685039520263672 20.116798400878906 C14.217119216918945 19.417200088500977 14.561040878295898 18.571678161621094 14.704079627990723 17.711999893188477 C14.833439826965332 16.9598388671875 14.830080032348633 16.20720100402832 14.773199081420898 15.467521667480469 C14.766239166259766 15.360721588134766 14.759039878845215 15.255121231079102 14.75015926361084 15.149520874023438 C14.74367904663086 15.102241516113281 14.735758781433105 15.058080673217773 14.731439590454102 15.01128101348877 C14.558878898620605 13.380961418151855 14.183038711547852 11.803921699523926 14.041679382324219 10.218960762023926 C13.970158576965332 9.405600547790527 13.964639663696289 8.590081214904785 14.101678848266602 7.806480407714844 C14.23655891418457 7.021200180053711 14.526719093322754 6.275040149688721 14.97887897491455 5.622960567474365 C15.434399604797363 4.977600574493408 16.017839431762695 4.405440330505371 16.703758239746094 3.95736026763916 C16.862398147583008 3.8306398391723633 17.049358367919922 3.738719940185547 17.224557876586914 3.632640838623047 C17.397598266601562 3.5368804931640625 17.591997146606445 3.4044008255004883 17.743677139282227 3.3396005630493164 C18.099597930908203 3.184800148010254 18.48767852783203 3.0744009017944336 18.869998931884766 3.0328807830810547 C19.639678955078125 2.9373607635498047 20.391597747802734 3.15432071685791 20.860557556152344 3.774240493774414 C20.938316345214844 3.8558406829833984 20.987037658691406 3.933600425720215 21.029998779296875 4.008240222930908 C21.07367706298828 4.0869598388671875 21.129119873046875 4.149120807647705 21.16919708251953 4.241039752960205 C21.252479553222656 4.415760040283203 21.337678909301758 4.5909600257873535 21.392879486083984 4.781520366668701 C21.522478103637695 5.155920028686523 21.592557907104492 5.554319858551025 21.637197494506836 5.958000183105469 C21.731517791748047 7.0207200050354 21.639118194580078 8.116080284118652 21.40511703491211 9.168479919433594 C21.59063720703125 9.2160005569458 21.779277801513672 9.26375961303711 21.970077514648438 9.316320419311523 C22.03247833251953 9.047039985656738 22.088157653808594 8.77776050567627 22.136638641357422 8.505600929260254 C22.280397415161133 7.653360366821289 22.335357666015625 6.780241012573242 22.26167869567871 5.897760391235352 C22.22087860107422 5.458560466766357 22.14935874938965 5.015040397644043 22.00583839416504 4.579920291900635 C21.94367790222168 4.363679885864258 21.847198486328125 4.152240753173828 21.749279022216797 3.9422407150268555 C21.706077575683594 3.836400032043457 21.626157760620117 3.7320003509521484 21.56447982788086 3.627120018005371 C21.498958587646484 3.5171995162963867 21.430559158325195 3.417360305786133 21.36119842529297 3.3448801040649414 C21.087839126586914 2.979599952697754 20.666400909423828 2.658480644226074 20.208478927612305 2.496720314025879 C19.7479190826416 2.328721046447754 19.259517669677734 2.297281265258789 18.797039031982422 2.343120574951172 C18.331439971923828 2.388239860534668 17.88912010192871 2.508481025695801 17.461198806762695 2.688720703125 C17.22047996520996 2.792160987854004 17.06591796875 2.9028005599975586 16.862878799438477 3.0117597579956055 C16.67207908630371 3.124800682067871 16.475038528442383 3.2193603515625 16.298158645629883 3.3542404174804688 C15.552718162536621 3.8313608169555664 14.885278701782227 4.457760334014893 14.357999801635742 5.189760208129883 C13.82975959777832 5.924160003662109 13.483919143676758 6.788400173187256 13.322879791259766 7.664400577545166 C13.157999038696289 8.544240951538086 13.157039642333984 9.428640365600586 13.219919204711914 10.284000396728516 C13.347599029541016 11.921521186828613 13.693439483642578 13.481040000915527 13.840799331665039 15.006000518798828 C13.848238945007324 15.08064079284668 13.86023998260498 15.155760765075684 13.86575984954834 15.229440689086914 C13.87224006652832 15.30504035949707 13.875359535217285 15.3787202835083 13.880399703979492 15.453839302062988 C13.929840087890625 16.172880172729492 13.925519943237305 16.880399703979492 13.800959587097168 17.549999237060547 C13.665839195251465 18.289920806884766 13.37399959564209 18.96984100341797 12.931199073791504 19.53936004638672 C12.499918937683105 20.118000030517578 11.88671875 20.562959671020508 11.266319274902344 20.928482055664062 L10.793999671936035 21.189599990844727 L10.261198997497559 21.422401428222656 L9.993119239807129 21.537841796875 L9.926639556884766 21.566160202026367 C9.897358894348145 21.578399658203125 9.928079605102539 21.56568145751953 9.913679122924805 21.571441650390625 L9.88079833984375 21.585121154785156 L9.74855899810791 21.633359909057617 C9.574318885803223 21.698400497436523 9.395998001098633 21.76007843017578 9.218639373779297 21.818159103393555 C8.510398864746094 22.05143928527832 7.793758869171143 22.245357513427734 7.0975189208984375 22.345439910888672 C6.750958442687988 22.395118713378906 6.4036784172058105 22.424638748168945 6.0926384925842285 22.397998809814453 C6.047998428344727 22.398239135742188 6.009358882904053 22.390079498291016 5.9685587882995605 22.383838653564453 C5.579758644104004 22.288799285888672 5.563678741455078 22.189680099487305 5.699278831481934 22.094158172607422 C5.735278606414795 22.076641082763672 5.765758991241455 22.057199478149414 5.804398536682129 22.039440155029297 C5.98823881149292 21.95039939880371 6.199438571929932 21.8702392578125 6.406318664550781 21.79391860961914 C6.721438407897949 21.684478759765625 7.084798336029053 21.567838668823242 7.421278476715088 21.4173583984375 C7.590958595275879 21.34703826904297 7.760158061981201 21.275039672851562 7.9288787841796875 21.204238891601562 C8.092798233032227 21.118080139160156 8.256479263305664 21.032398223876953 8.419198989868164 20.94696044921875 C9.718318939208984 20.271839141845703 10.809118270874023 19.157520294189453 11.393038749694824 17.885761260986328 C11.799598693847656 17.036640167236328 12.002638816833496 16.164960861206055 12.114238739013672 15.322799682617188 C12.134638786315918 15.180960655212402 12.15143871307373 15.040800094604492 12.16559886932373 14.900880813598633 C12.193678855895996 14.62992000579834 12.21431827545166 14.36400032043457 12.23063850402832 14.101921081542969 C12.28727912902832 12.897841453552246 12.2371187210083 11.781121253967285 12.211438179016113 10.746240615844727 C12.13631820678711 8.680800437927246 12.186478614807129 6.921600341796875 12.567598342895508 5.596320152282715 C12.919438362121582 4.262880325317383 13.594318389892578 3.4072799682617188 14.069518089294434 2.916240692138672 C14.196718215942383 2.79695987701416 14.279997825622559 2.690159797668457 14.398798942565918 2.5946407318115234 C14.449679374694824 2.5550403594970703 14.49479866027832 2.518080711364746 14.539679527282715 2.4825611114501953 L14.897279739379883 3.0808801651000977 L16.267438888549805 0.6187210083007812 L13.45199966430664 0.6631202697753906 L13.823040008544922 1.2839994430541992 C13.743599891662598 1.3495206832885742 13.644720077514648 1.4306402206420898 13.528559684753418 1.5278406143188477 C13.409760475158691 1.62384033203125 13.261199951171875 1.7868003845214844 13.102559089660645 1.944960594177246 C13.023839950561523 2.029200553894043 12.932880401611328 2.1120004653930664 12.852720260620117 2.2080001831054688 C12.776400566101074 2.3052005767822266 12.695760726928711 2.406240463256836 12.611760139465332 2.513040542602539 C12.435359954833984 2.720640182495117 12.278400421142578 2.9719200134277344 12.113280296325684 3.245039939880371 C11.789039611816406 3.793919563293457 11.481599807739258 4.470000267028809 11.287439346313477 5.249760150909424 C10.86240005493164 6.808800220489502 10.855199813842773 8.715120315551758 10.952399253845215 10.790879249572754 C10.994159698486328 11.830799102783203 11.055839538574219 12.923039436340332 11.014799118041992 14.048398971557617 C11.003999710083008 14.29871940612793 10.986239433288574 14.551918983459473 10.963679313659668 14.805838584899902 C10.950958251953125 14.941438674926758 10.93583869934082 15.077278137207031 10.919519424438477 15.212398529052734 C10.825439453125 15.957359313964844 10.656478881835938 16.698719024658203 10.334878921508789 17.38991928100586 C10.088639259338379 17.911678314208984 9.777839660644531 18.41807746887207 9.35015869140625 18.84263801574707 L9.197518348693848 19.00967788696289 L9.024238586425781 19.158477783203125 C8.906638145446777 19.256637573242188 8.793838500976562 19.359119415283203 8.672638893127441 19.456077575683594 C8.409358978271484 19.625038146972656 8.169358253479004 19.828079223632812 7.875598907470703 19.96919822692871 L7.4493584632873535 20.20079803466797 L6.995759010314941 20.39615821838379 C6.6928791999816895 20.537036895751953 6.386158466339111 20.64023780822754 6.029278755187988 20.768638610839844 C5.680558681488037 20.905437469482422 5.329198837280273 21.037200927734375 4.95383882522583 21.275039672851562 C4.77311897277832 21.40127944946289 4.553519248962402 21.52008056640625 4.368719100952148 21.890880584716797 C4.326719284057617 21.977998733520508 4.302718639373779 22.11743927001953 4.293118476867676 22.230958938598633 C4.299598693847656 22.34640121459961 4.325038909912109 22.483680725097656 4.368238925933838 22.58207893371582 C4.390318393707275 22.625038146972656 4.415278434753418 22.668479919433594 4.442638874053955 22.710237503051758 L4.4829583168029785 22.77263832092285 C4.515838146209717 22.812957763671875 4.464478492736816 22.767839431762695 4.570318698883057 22.877758026123047 L4.671838760375977 22.96919822692871 C4.713119029998779 23.0023193359375 4.72463846206665 23.02391815185547 4.789678573608398 23.067838668823242 C4.855678558349609 23.109600067138672 4.92167854309082 23.149436950683594 4.989838600158691 23.187599182128906 C5.1362385749816895 23.275678634643555 5.245438575744629 23.301597595214844 5.359438419342041 23.337360382080078 C5.477758407592773 23.379840850830078 5.587438583374023 23.397119522094727 5.697118282318115 23.41320037841797 C5.809438705444336 23.43168067932129 5.9198384284973145 23.447040557861328 6.024478435516357 23.447519302368164 C6.453838348388672 23.47511863708496 6.857038497924805 23.43239974975586 7.251358509063721 23.37071990966797 C8.04119873046875 23.247119903564453 8.794797897338867 23.02943992614746 9.543118476867676 22.774078369140625 C9.731278419494629 22.70903778076172 9.916797637939453 22.640399932861328 10.103278160095215 22.569358825683594 L10.24319839477539 22.515361785888672 L10.331518173217773 22.477920532226562 L10.397518157958984 22.448640823364258 L10.66247844696045 22.330562591552734 L11.19623851776123 22.089122772216797 L11.751358032226562 21.779521942138672 C12.46776008605957 21.343679428100586 13.159440040588379 20.828880310058594 13.685039520263672 20.116798400878906 Z"></path></svg>