<?xml version="1.0" standalone="no"?>
<!DOCTYPE svg PUBLIC "-//W3C//DTD SVG 20010904//EN"
 "http://www.w3.org/TR/2001/REC-SVG-20010904/DTD/svg10.dtd">
<svg version="1.0" xmlns="http://www.w3.org/2000/svg"
 width="1000.000000pt" height="416.000000pt" viewBox="0 0 1000.000000 416.000000"
 preserveAspectRatio="xMidYMid meet">

<g transform="translate(0.000000,416.000000) scale(0.100000,-0.100000)"
fill="#000000" stroke="none">
<path d="M5034 4145 c-24 -18 -7 -19 26 0 16 9 19 14 9 15 -8 0 -24 -7 -35
-15z"/>
<path d="M5185 4148 c-153 -54 -327 -136 -503 -239 -63 -37 -100 -50 -88 -30
9 14 234 152 331 203 50 26 86 48 81 48 -39 1 -419 -218 -524 -303 -88 -72
-218 -221 -255 -292 -28 -54 -31 -71 -35 -177 l-4 -116 48 -83 c27 -45 81
-116 121 -158 39 -42 83 -89 96 -105 l24 -30 -21 -19 c-11 -11 -4 -7 17 8 21
15 44 24 52 21 49 -18 255 -170 255 -187 0 -4 -26 -22 -57 -39 -81 -45 -127
-84 -298 -252 -82 -80 -152 -145 -154 -142 -3 3 10 58 35 147 4 12 0 17 -13
17 -14 0 -22 -13 -32 -47 -7 -27 -19 -68 -27 -92 -8 -25 -14 -52 -14 -60 -1
-36 -245 -241 -332 -278 -54 -24 -91 -121 -78 -205 6 -40 96 -220 130 -261 6
-7 20 -23 31 -37 46 -55 65 -76 84 -90 11 -8 -3 12 -31 45 -28 33 -60 74 -71
90 -26 39 -65 145 -54 145 5 0 24 -17 41 -37 l31 -38 -38 77 c-21 42 -43 77
-49 77 -14 1 -7 82 11 126 17 42 72 70 410 210 101 41 114 50 98 66 -7 7 -37
-1 -99 -27 -152 -63 -154 -62 -72 18 40 39 88 82 106 96 18 14 65 59 105 100
113 119 138 140 186 157 26 10 74 28 109 41 34 14 67 22 72 19 10 -6 50 29 50
44 0 18 -22 24 -43 12 -27 -13 -125 -51 -134 -51 -30 0 196 124 242 133 30 6
30 5 27 -34 l-4 -39 -26 20 c-47 37 -36 10 19 -47 30 -32 58 -61 64 -65 5 -4
2 -15 -9 -27 -11 -12 -22 -38 -25 -58 -7 -41 -19 -47 -118 -56 -32 -3 -78 -9
-102 -13 -42 -7 -43 -6 -36 17 7 22 7 23 -10 9 -17 -14 -17 -14 -6 8 23 43 1
21 -40 -40 -48 -71 -56 -78 -84 -77 -16 1 -16 2 5 9 l25 8 -28 1 c-25 1 -27
-2 -22 -20 5 -13 2 -25 -6 -31 -10 -6 -6 -7 10 -3 19 6 23 4 18 -8 -3 -8 -1
-19 4 -24 5 -5 -5 -9 -27 -10 -19 -1 -44 -9 -54 -18 -17 -15 -18 -15 -22 2 -2
10 -8 -17 -12 -60 -6 -65 -5 -82 9 -103 20 -32 74 -55 106 -47 53 13 4 -13
-54 -29 -56 -14 -59 -16 -27 -18 l35 -2 -27 -11 c-41 -16 -34 -26 10 -16 51
12 64 11 56 -3 -5 -7 -3 -8 5 -3 8 4 23 -3 39 -18 15 -14 39 -30 54 -36 26
-10 27 -12 21 -63 -10 -86 -14 -90 -103 -127 -106 -44 -88 -63 24 -24 l76 27
15 -20 c21 -30 94 -48 169 -41 58 5 64 4 69 -14 6 -24 37 -15 37 11 0 14 10
19 43 23 38 4 45 2 74 -32 41 -45 44 -87 8 -101 -25 -9 -30 -28 -26 -86 1 -13
-11 -31 -33 -48 l-35 -26 14 47 c8 26 13 49 11 51 -2 2 -10 -14 -16 -35 -21
-66 -52 -112 -86 -128 -38 -18 -175 -20 -244 -4 -164 38 -367 69 -464 71 -91
1 -112 5 -134 22 -21 16 -24 16 -13 3 8 -10 12 -20 9 -22 -9 -10 -292 -10
-488 -1 -292 13 -350 0 -350 -78 0 -24 7 -40 23 -53 13 -10 29 -27 36 -38 11
-19 12 -18 7 6 -4 17 0 31 9 39 11 9 16 4 25 -32 6 -24 13 -49 16 -57 3 -9 -2
-12 -17 -8 -13 4 -19 1 -16 -6 2 -7 10 -38 17 -69 7 -32 19 -58 25 -58 15 0
30 -36 44 -100 14 -65 5 -62 -14 5 -19 65 -32 69 -15 4 8 -30 10 -83 5 -166
-6 -105 -5 -123 8 -123 16 0 27 40 27 96 0 24 4 32 14 28 23 -9 28 13 12 61
-9 25 -19 64 -22 86 l-7 41 27 -17 c21 -14 29 -15 41 -5 20 17 19 45 -4 89
-10 20 -34 68 -52 106 -19 39 -45 88 -60 110 -39 60 -44 73 -18 43 39 -45 59
-72 59 -81 0 -4 4 -6 8 -3 5 3 21 -2 36 -10 l28 -14 -28 37 c-15 21 -36 49
-47 63 l-19 25 74 5 c40 3 94 3 120 0 l47 -5 120 -152 c112 -141 151 -177 151
-138 0 8 -45 72 -100 141 -55 69 -100 129 -100 133 0 3 88 6 195 6 l195 0 68
-95 c65 -91 102 -121 102 -85 0 9 -11 31 -25 49 -27 35 -32 52 -13 40 7 -4 8
-3 4 5 -4 6 -11 9 -16 6 -5 -3 -21 11 -35 32 l-25 38 27 6 c38 9 130 9 177 1
l39 -7 -66 -58 c-43 -38 -71 -56 -79 -51 -7 5 2 -10 20 -33 17 -22 32 -46 32
-52 0 -6 23 -59 50 -117 28 -58 50 -110 50 -115 0 -4 5 -11 11 -15 8 -4 9 0 4
15 -7 23 9 29 22 9 8 -14 53 -20 53 -8 0 4 -5 21 -11 38 -9 27 -15 31 -35 26
-22 -6 -27 1 -68 88 -32 70 -49 97 -66 101 -34 9 -21 30 60 101 69 59 75 63
87 46 10 -14 20 -16 46 -11 18 5 39 7 47 5 16 -2 30 -5 128 -24 37 -8 99 -11
153 -8 102 6 97 12 61 -78 -14 -34 -17 -55 -11 -65 8 -11 13 -10 29 10 11 13
20 31 20 40 0 9 4 22 9 30 7 10 24 -15 63 -95 49 -98 54 -113 47 -149 -15 -80
-10 -130 19 -186 38 -73 89 -107 170 -115 61 -7 62 -6 62 18 0 13 5 29 12 36
9 9 0 12 -42 12 -49 0 -52 -1 -34 -14 15 -11 16 -17 7 -27 -9 -9 -19 -9 -43 1
-29 12 -85 68 -77 77 3 2 22 -6 43 -18 l39 -21 -32 26 c-17 14 -39 46 -49 71
-15 40 -15 55 -4 137 7 51 10 102 7 113 -3 12 -5 5 -6 -18 -2 -57 -23 -135
-30 -111 -12 37 3 442 17 456 6 6 13 10 13 7 1 -2 5 -71 9 -154 l6 -150 2 166
c2 155 4 170 29 230 19 45 27 83 27 126 1 35 3 63 6 63 3 0 11 -19 17 -43 24
-89 82 -131 181 -130 56 0 67 4 94 29 91 85 87 217 -8 289 -34 26 -45 30 -94
26 -30 -2 -68 -10 -83 -18 -16 -8 -31 -13 -33 -10 -2 2 3 25 11 52 14 48 14
48 -5 29 -10 -10 -28 -55 -40 -99 -20 -75 -34 -105 -44 -94 -3 2 8 45 24 94
16 50 39 133 51 185 12 52 42 149 66 215 24 66 49 136 55 155 5 19 16 42 24
51 8 9 18 33 21 53 3 20 10 36 14 36 5 0 9 5 9 11 0 5 -4 8 -10 4 -5 -3 -17 9
-26 27 -9 18 -25 40 -36 49 -20 15 -20 16 6 54 47 69 26 149 -50 185 -50 24
-90 21 -137 -12 -24 -18 -30 -18 -40 -6 -7 8 -22 22 -35 30 -22 15 -21 16 35
36 32 11 94 31 138 43 44 12 121 34 170 49 50 15 121 35 158 45 50 14 75 26
93 48 33 40 28 65 -21 93 -49 28 -59 29 -44 5 7 -10 9 -26 5 -36 -6 -17 -8
-17 -21 2 -30 42 -127 234 -122 240 4 3 -7 29 -22 57 -26 47 -29 62 -36 199
-6 127 -9 148 -23 145 -13 -3 -15 -19 -13 -109 2 -102 2 -106 -20 -112 l-22
-6 27 -45 c23 -40 26 -55 26 -140 l0 -96 -27 10 -28 10 30 -25 30 -25 3 96 c3
95 3 96 21 72 33 -42 113 -179 108 -184 -3 -3 -14 -1 -25 5 -26 14 -35 14 -27
1 4 -6 -6 -10 -21 -10 l-28 0 32 -32 c17 -18 54 -41 83 -51 53 -19 55 -30 7
-41 -25 -6 -42 7 -160 113 -138 124 -280 258 -244 230 47 -36 48 -30 1 14 -45
41 -95 62 -95 38 0 -9 47 -53 145 -136 76 -65 98 -86 93 -91 -12 -11 -411 140
-446 169 -12 10 -14 9 -10 -3 2 -8 31 -25 64 -38 32 -13 73 -30 90 -37 17 -8
84 -35 150 -60 220 -85 249 -98 307 -148 31 -28 57 -53 57 -56 0 -6 -142 -50
-232 -72 l-47 -11 -101 71 c-59 43 -98 77 -94 83 4 7 2 8 -4 4 -7 -4 -12 -3
-12 2 0 13 -195 144 -216 146 -9 0 -19 -5 -21 -11 -4 -12 77 -68 324 -224 56
-35 103 -67 103 -71 0 -4 -30 -16 -66 -27 -57 -18 -108 -40 -94 -41 3 0 48 14
100 30 85 27 205 57 313 80 20 4 37 4 37 0 0 -12 -68 -38 -233 -90 -87 -28
-204 -68 -260 -89 -56 -22 -120 -45 -142 -51 -51 -16 -196 -90 -255 -129 -53
-36 -64 -32 -25 9 48 50 203 137 329 185 66 25 122 47 124 50 12 12 -21 3 -88
-25 -40 -17 -80 -30 -89 -30 -9 0 -47 29 -86 65 -38 36 -78 65 -87 65 -35 0
-17 -36 47 -92 61 -54 64 -58 45 -68 -18 -10 -30 -4 -88 43 -89 73 -208 149
-227 145 -9 -2 -21 6 -28 18 -65 111 -83 137 -108 155 -17 11 -45 44 -64 72
-37 55 -45 78 -20 57 29 -24 25 -3 -6 29 -29 31 -30 35 -28 109 2 63 18 133
34 150 2 2 81 -76 175 -172 95 -97 179 -176 186 -176 31 0 10 40 -50 98 -61
59 -86 77 -70 50 12 -20 -104 83 -175 155 -61 63 -63 66 -48 87 29 41 178 200
214 227 l35 27 25 -29 c17 -20 21 -23 14 -8 -6 12 -16 25 -22 28 -7 5 -2 15
11 27 27 25 350 218 365 218 5 -1 72 -102 148 -225 149 -242 141 -220 112
-300 l-8 -20 16 20 c13 15 17 17 17 5 1 -9 5 -5 10 8 6 14 17 22 27 20 15 -2
17 3 15 32 -2 21 10 64 29 112 17 44 29 81 26 85 -15 14 -36 -10 -57 -66 -12
-34 -26 -61 -30 -61 -4 0 -29 34 -56 75 -27 41 -53 75 -57 75 -5 0 -5 5 -2 10
4 6 1 9 -6 8 -11 -3 -158 197 -159 217 0 16 43 39 175 90 66 26 122 49 124 51
9 8 -66 2 -94 -8z m-24 -815 c13 -16 12 -17 -3 -4 -10 7 -18 15 -18 17 0 8 8
3 21 -13z m-823 -258 c-3 -3 -9 2 -12 12 -6 14 -5 15 5 6 7 -7 10 -15 7 -18z
m23 -37 c11 -21 11 -22 -4 -9 -10 7 -17 17 -17 22 0 15 9 10 21 -13z m759
-414 c0 -14 -21 -19 -33 -7 -9 9 13 34 24 27 5 -3 9 -12 9 -20z m223 -9 c1 -5
-6 -11 -15 -13 -11 -2 -18 3 -18 13 0 17 30 18 33 0z m-167 -156 c7 -12 -15
-31 -28 -23 -4 3 -8 12 -8 20 0 17 26 19 36 3z m114 1 c13 -8 13 -11 -2 -27
-10 -9 -18 -12 -18 -6 0 6 -3 18 -6 27 -7 18 4 20 26 6z m70 -75 c0 -8 -7 -15
-15 -15 -8 0 -15 7 -15 15 0 8 7 15 15 15 8 0 15 -7 15 -15z m-394 -77 c-25
-14 -19 -28 12 -28 15 -1 38 -7 52 -15 38 -22 103 -19 134 6 l26 20 0 -23 c0
-16 -12 -31 -43 -50 -23 -15 -52 -36 -65 -48 -12 -12 -27 -18 -34 -14 -7 4 -8
3 -4 -5 5 -7 -5 -17 -28 -26 -46 -19 -83 -19 -41 0 47 22 3 18 -57 -5 -66 -25
-78 -25 -78 0 0 11 5 20 11 20 5 0 2 13 -8 30 -10 17 -26 30 -37 30 -11 0 -16
3 -13 6 3 4 2 15 -4 25 -8 15 -21 19 -69 19 -33 0 -60 4 -60 9 0 16 27 31 66
36 21 3 59 8 84 11 161 22 192 22 156 2z m-256 -78 c0 -5 -16 -10 -36 -10 -21
0 -33 4 -29 10 3 6 19 10 36 10 16 0 29 -4 29 -10z m664 -17 c-3 -16 -14 -44
-24 -65 -10 -20 -17 -38 -14 -41 3 -2 -4 -29 -15 -58 -11 -30 -32 -94 -46
-144 -15 -49 -31 -95 -36 -102 -6 -6 -37 -22 -70 -35 -32 -13 -59 -29 -59 -35
0 -17 23 -16 67 2 20 8 38 14 40 12 4 -5 -27 -99 -37 -110 -3 -4 -20 -1 -36 8
-16 8 -37 15 -46 15 -10 0 -34 23 -55 50 -20 28 -43 50 -49 50 -6 0 -35 30
-63 66 -28 37 -51 64 -51 60 0 -4 32 -54 71 -112 39 -58 69 -107 67 -109 -9
-9 -207 -27 -232 -21 -28 7 -29 8 -23 61 3 31 16 72 31 97 23 40 112 138 147
163 66 48 88 60 137 75 40 13 49 19 32 20 l-25 1 23 11 c12 6 22 16 23 22 0
16 55 57 87 65 15 4 36 21 47 38 16 25 28 32 60 36 22 2 43 4 48 5 4 1 5 -10
1 -25z m-714 -14 c0 -6 -5 -19 -10 -30 -9 -16 -15 -17 -31 -8 -20 10 -20 11
-3 30 19 21 44 26 44 8z m65 -13 c18 -13 17 -14 -13 -30 -17 -9 -36 -16 -41
-16 -11 0 -4 27 12 48 12 15 19 15 42 -2z m445 -4 c0 -16 -97 -101 -173 -152
-44 -28 -96 -69 -117 -90 -51 -51 -115 -139 -127 -174 -12 -37 -33 -46 -33
-14 0 40 55 141 109 200 28 31 91 82 139 114 48 31 107 72 131 91 42 32 71 42
71 25z m-587 -59 c-13 -2 -33 -2 -45 0 -13 2 -3 4 22 4 25 0 35 -2 23 -4z
m200 -27 c7 -18 -11 -26 -38 -16 -19 7 -19 7 0 18 26 15 32 15 38 -2z m147
-33 c-14 -9 -48 -36 -77 -61 -51 -42 -52 -43 -63 -22 -6 12 -10 23 -8 24 46
34 76 50 110 61 59 18 67 18 38 -2z m-193 -385 c-3 -8 -6 -5 -6 6 -1 11 2 17
5 13 3 -3 4 -12 1 -19z m301 -40 c18 -18 15 -25 -14 -32 -35 -9 -84 2 -84 19
0 23 77 34 98 13z m131 -26 c21 -24 23 -32 19 -111 -7 -137 -64 -231 -187
-311 -44 -27 -59 -31 -147 -36 -89 -6 -120 -2 -304 35 l-205 40 -325 5 c-323
5 -380 10 -380 28 0 6 60 8 153 6 83 -2 235 1 337 5 l185 8 215 -42 c163 -31
238 -41 310 -40 l94 0 67 46 c37 25 79 62 94 81 69 90 85 233 32 274 -15 12
-27 28 -27 36 0 22 40 8 69 -24z m307 15 c51 -44 26 -127 -38 -127 -36 0 -78
40 -78 75 0 31 41 75 69 75 11 0 32 -11 47 -23z m-651 0 c60 1 78 -8 68 -34
-12 -31 -135 -8 -154 30 -10 18 -9 19 7 11 11 -5 46 -8 79 -7z m253 -503 c4
-92 -5 -184 -18 -184 -11 0 -52 81 -45 88 2 2 -5 22 -15 43 -30 58 -26 82 18
112 20 14 42 25 47 23 6 -1 11 -38 13 -82z m-1640 -152 c2 -40 0 -52 -11 -52
-17 0 -26 35 -19 79 7 49 27 31 30 -27z"/>
<path d="M5348 3968 c-3 -191 2 -229 27 -208 9 8 11 29 8 70 -5 55 -4 60 14
60 13 0 47 38 109 122 114 156 110 148 82 148 -18 0 -42 -27 -108 -116 -47
-64 -87 -117 -90 -119 -3 -2 -4 43 -3 98 2 68 0 95 -6 82 -8 -16 -10 -13 -10
18 -1 20 -5 37 -11 37 -5 0 -10 -78 -12 -192z"/>
<path d="M4626 3709 c22 -38 260 -319 271 -319 6 0 14 4 17 9 7 11 -63 103
-74 96 -4 -3 -23 12 -41 33 -64 73 -182 197 -173 181z"/>
<path d="M4820 3515 c7 -9 15 -13 17 -11 7 7 -7 26 -19 26 -6 0 -6 -6 2 -15z"/>
<path d="M4836 3336 c10 -8 21 -12 24 -10 5 6 -21 24 -34 24 -6 0 -1 -6 10
-14z"/>
<path d="M4702 3010 c0 -14 2 -19 5 -12 2 6 2 18 0 25 -3 6 -5 1 -5 -13z"/>
<path d="M4557 2939 c7 -7 15 -10 18 -7 3 3 -2 9 -12 12 -14 6 -15 5 -6 -5z"/>
<path d="M4320 2896 c0 -2 8 -10 18 -17 15 -13 16 -12 3 4 -13 16 -21 21 -21
13z"/>
<path d="M4313 2772 c-92 -79 -124 -122 -90 -122 6 0 46 29 87 64 41 35 80 62
86 59 6 -2 14 4 18 14 3 10 9 24 12 31 4 8 0 10 -10 6 -19 -7 -21 7 -4 24 33
33 -7 2 -99 -76z"/>
<path d="M4415 2764 c-11 -14 -29 -36 -40 -48 -43 -48 -47 -59 -8 -22 40 37
63 41 63 10 0 -9 -22 -41 -50 -72 -27 -31 -50 -61 -50 -66 1 -6 13 4 28 23 15
19 48 57 74 85 54 58 65 81 48 101 -18 22 -43 18 -65 -11z"/>
<path d="M5472 2304 c-13 -31 -21 -58 -19 -60 7 -7 48 86 45 101 -2 9 -13 -10
-26 -41z"/>
<path d="M4121 2204 c0 -11 3 -14 6 -6 3 7 2 16 -1 19 -3 4 -6 -2 -5 -13z"/>
<path d="M5426 2165 c-9 -26 -7 -32 5 -12 6 10 9 21 6 23 -2 3 -7 -2 -11 -11z"/>
<path d="M5366 1985 c-9 -26 -7 -32 5 -12 6 10 9 21 6 23 -2 3 -7 -2 -11 -11z"/>
<path d="M4187 1973 c-2 -5 -1 -30 3 -58 l7 -50 2 58 c1 54 -2 67 -12 50z"/>
<path d="M4132 1925 c0 -16 2 -22 5 -12 2 9 2 23 0 30 -3 6 -5 -1 -5 -18z"/>
<path d="M4488 1811 c17 -10 -2 -15 -121 -32 -124 -17 -100 -23 32 -8 96 11
111 15 111 31 0 11 -7 18 -17 18 -14 0 -15 -2 -5 -9z"/>
<path d="M5863 1814 c34 -11 14 -35 -49 -59 l-39 -14 55 6 c33 4 60 13 67 22
10 14 12 14 18 -1 4 -10 18 -18 31 -18 13 0 41 -7 62 -15 37 -15 38 -16 38
-70 0 -30 -4 -49 -8 -42 -6 9 -8 8 -8 -3 0 -8 -3 -26 -5 -40 -5 -22 -4 -22 4
-5 9 18 10 18 10 2 1 -10 -5 -28 -13 -40 -7 -12 -19 -44 -25 -72 -13 -54 -70
-165 -133 -258 -36 -53 -73 -126 -127 -251 -20 -45 -101 -345 -101 -370 1 -26
18 -38 46 -32 23 5 32 15 42 46 6 22 12 48 12 58 0 47 56 228 101 329 28 62
54 113 57 113 3 0 2 -48 -1 -107 -5 -110 -4 -116 9 -28 5 39 8 46 15 30 5 -13
8 3 8 48 1 37 4 67 9 67 4 0 48 -28 99 -62 78 -53 91 -66 87 -85 -4 -14 7 -41
35 -84 23 -35 41 -67 41 -73 0 -5 3 -7 6 -4 3 4 -2 20 -11 37 -9 18 -13 36
-10 41 3 5 -6 27 -20 50 -14 22 -23 40 -19 40 3 0 25 -14 49 -31 28 -20 50
-29 61 -25 15 6 15 8 -2 27 -24 26 -164 115 -176 111 -8 -2 -102 46 -146 76
-10 7 3 35 53 119 36 61 65 116 65 122 0 6 4 11 9 11 4 0 26 -67 47 -150 32
-124 42 -150 57 -150 13 0 17 5 13 18 -2 9 -17 64 -32 122 -16 58 -34 111 -41
118 -20 21 -27 83 -14 127 43 142 51 214 30 273 -14 42 -95 73 -199 78 -41 2
-67 1 -57 -2z m206 -349 c-27 -85 -117 -264 -155 -306 -21 -23 -129 -264 -148
-330 -9 -31 -23 -62 -31 -69 -13 -11 -15 -8 -15 21 0 88 88 298 187 448 56 83
123 210 161 304 6 15 16 27 21 27 5 0 -4 -43 -20 -95z"/>
<path d="M4418 1803 c12 -2 30 -2 40 0 9 3 -1 5 -23 4 -22 0 -30 -2 -17 -4z"/>
<path d="M4343 1793 c9 -2 23 -2 30 0 6 3 -1 5 -18 5 -16 0 -22 -2 -12 -5z"/>
<path d="M4224 1751 c3 -5 15 -7 26 -4 28 7 25 13 -6 13 -14 0 -23 -4 -20 -9z"/>
<path d="M4163 1743 c9 -2 25 -2 35 0 9 3 1 5 -18 5 -19 0 -27 -2 -17 -5z"/>
<path d="M5748 1733 c7 -3 16 -2 19 1 4 3 -2 6 -13 5 -11 0 -14 -3 -6 -6z"/>
<path d="M4350 1550 c-123 -42 -192 -69 -175 -70 18 -1 18 -2 -5 -16 l-25 -15
25 6 c39 10 192 57 218 66 25 10 25 33 1 36 -8 1 -25 -2 -39 -7z"/>
<path d="M4563 1484 c-3 -8 -3 -17 0 -20 3 -3 91 -48 196 -99 163 -80 191 -91
191 -75 0 11 -12 26 -30 35 -34 17 -44 19 -35 5 10 -16 -11 -12 -60 12 -46 22
-62 45 -25 35 16 -4 20 0 20 21 0 15 -7 36 -15 46 -14 19 -15 18 -15 -12 0
-18 -4 -32 -9 -32 -5 0 -47 19 -93 42 -116 59 -118 60 -125 42z"/>
<path d="M5792 1458 c-10 -21 -11 -22 -12 -3 0 11 -16 -18 -36 -65 -19 -47
-41 -99 -49 -117 -8 -17 -15 -38 -15 -47 0 -27 29 -18 36 12 4 15 27 74 50
131 24 58 42 106 40 108 -1 2 -8 -7 -14 -19z"/>
<path d="M4056 1422 c-16 -3 -14 -7 14 -18 38 -17 48 -13 23 8 -10 8 -27 13
-37 10z"/>
<path d="M5426 1327 c-19 -50 -20 -57 -6 -57 5 0 17 14 26 31 10 20 11 28 3
24 -9 -6 -10 -1 -5 19 10 40 1 31 -18 -17z"/>
<path d="M5222 1053 l1 -38 6 35 c5 32 6 31 11 -20 l7 -55 1 58 c2 45 -1 57
-13 57 -11 0 -15 -10 -13 -37z"/>
<path d="M3466 1057 c3 -10 9 -15 12 -12 3 3 0 11 -7 18 -10 9 -11 8 -5 -6z"/>
<path d="M5530 1041 c0 -10 -3 -40 -6 -67 l-6 -49 21 37 c25 45 28 98 6 98 -8
0 -15 -8 -15 -19z"/>
<path d="M3496 1017 c3 -10 9 -15 12 -12 3 3 0 11 -7 18 -10 9 -11 8 -5 -6z"/>
<path d="M5213 950 c0 -30 2 -43 4 -27 2 15 2 39 0 55 -2 15 -4 2 -4 -28z"/>
<path d="M3526 975 c4 -8 11 -15 16 -15 6 0 5 6 -2 15 -7 8 -14 15 -16 15 -2
0 -1 -7 2 -15z"/>
<path d="M3550 948 c-1 -17 174 -243 191 -246 31 -5 22 15 -48 113 -70 97
-108 131 -53 48 33 -51 19 -37 -52 48 -20 24 -37 41 -38 37z"/>
<path d="M3590 941 c0 -6 4 -13 10 -16 6 -3 7 1 4 9 -7 18 -14 21 -14 7z"/>
<path d="M6290 866 c0 -7 33 -28 73 -46 93 -42 107 -46 79 -26 -12 10 -20 21
-18 25 6 8 -97 61 -119 61 -8 0 -15 -6 -15 -14z"/>
<path d="M4045 840 c-3 -6 -2 -16 2 -23 17 -29 258 -315 262 -312 2 2 -10 21
-26 42 -17 21 -36 49 -43 63 l-13 25 24 -20 24 -20 -15 20 c-8 11 -20 27 -27
35 -8 8 -45 54 -83 101 -69 86 -94 107 -105 89z"/>
<path d="M6640 741 c-10 -7 -11 -11 -2 -11 6 0 12 -7 12 -15 0 -11 7 -14 23
-11 12 3 55 8 95 11 60 5 72 4 72 -9 0 -8 -6 -16 -12 -19 -7 -2 11 -11 41 -20
65 -19 104 -9 99 25 -5 38 -51 51 -188 55 -77 3 -131 0 -140 -6z m315 -40 c3
-5 1 -12 -5 -16 -5 -3 -10 1 -10 9 0 18 6 21 15 7z"/>
<path d="M6523 733 c30 -8 18 -22 -25 -28 -24 -4 -83 -9 -133 -13 -90 -7 -90
-7 -91 -35 -1 -19 3 -26 12 -23 17 6 162 25 229 29 37 3 29 4 -30 6 l-80 3 60
9 c33 4 80 11 105 15 l45 6 -35 19 c-19 10 -44 18 -55 17 -17 0 -17 -1 -2 -5z"/>
<path d="M6453 723 c9 -2 25 -2 35 0 9 3 1 5 -18 5 -19 0 -27 -2 -17 -5z"/>
<path d="M5840 714 c0 -3 28 -17 63 -33 34 -15 83 -38 109 -50 86 -39 95 -41
108 -26 10 11 5 18 -22 35 -18 11 -56 27 -85 35 -29 8 -55 20 -58 25 -3 6 -11
10 -18 10 -6 0 -2 -7 9 -15 27 -20 4 -19 -56 4 -27 11 -50 17 -50 15z"/>
<path d="M6368 713 c7 -3 16 -2 19 1 4 3 -2 6 -13 5 -11 0 -14 -3 -6 -6z"/>
<path d="M4458 617 c3 -55 -2 -106 -12 -146 -9 -35 -14 -67 -10 -72 3 -5 -2
-12 -10 -15 -9 -3 -16 -13 -16 -21 0 -8 -37 -51 -82 -96 -100 -99 -177 -142
-345 -191 -65 -19 -131 -39 -148 -46 -16 -6 -55 -14 -85 -16 -81 -8 -77 -17 5
-12 74 6 376 93 449 130 23 11 69 43 104 70 68 54 82 50 28 -10 -47 -51 -171
-121 -286 -159 -66 -22 -86 -32 -65 -32 40 -1 180 49 252 90 83 48 207 170
238 234 38 80 55 169 53 275 l-1 95 -9 -107 c-8 -110 -21 -163 -36 -154 -5 3
-5 27 -1 53 16 97 8 213 -15 213 -7 0 -10 -26 -8 -83z"/>
<path d="M6225 690 c-17 -7 -15 -9 13 -9 17 -1 32 4 32 9 0 12 -17 12 -45 0z"/>
<path d="M6078 673 c7 -3 16 -2 19 1 4 3 -2 6 -13 5 -11 0 -14 -3 -6 -6z"/>
<path d="M6658 673 c6 -2 18 -2 25 0 6 3 1 5 -13 5 -14 0 -19 -2 -12 -5z"/>
<path d="M3914 595 c-6 -14 45 -122 110 -235 40 -70 31 -42 -29 84 -30 64 -52
116 -50 116 2 0 21 -31 41 -70 21 -38 40 -68 42 -66 6 7 -83 175 -96 180 -7 3
-15 -1 -18 -9z"/>
<path d="M3520 560 c-16 -10 -17 -8 63 -218 58 -153 77 -191 46 -91 -21 68
-19 87 5 42 8 -15 15 -26 15 -23 1 8 -105 289 -110 294 -3 3 -11 1 -19 -4z"/>
<path d="M5378 513 c12 -2 30 -2 40 0 9 3 -1 5 -23 4 -22 0 -30 -2 -17 -4z"/>
<path d="M4330 470 c6 -11 13 -20 16 -20 2 0 0 9 -6 20 -6 11 -13 20 -16 20
-2 0 0 -9 6 -20z"/>
<path d="M3386 443 c-3 -10 -8 -32 -10 -49 -3 -17 -19 -88 -36 -158 -17 -71
-28 -131 -25 -134 3 -3 5 1 5 9 1 8 7 28 15 44 l15 30 -6 -40 c-3 -22 -4 -38
-1 -35 5 5 78 303 81 330 2 21 -31 24 -38 3z"/>
<path d="M3301 74 c0 -11 3 -14 6 -6 3 7 2 16 -1 19 -3 4 -6 -2 -5 -13z"/>
<path d="M3082 58 c-7 -7 -12 -22 -12 -35 l0 -23 163 2 c89 0 147 3 130 5 -18
2 -33 9 -33 14 0 6 -5 7 -10 4 -6 -3 -13 1 -16 10 -4 9 -10 12 -13 7 -4 -6
-37 -3 -91 9 -103 22 -103 22 -118 7z"/>
</g>
</svg>
