<?xml version="1.0" encoding="UTF-8"?>
<svg width="100px" height="100px" fill="#000000" viewBox="0 0 129.01 128" xmlns="http://www.w3.org/2000/svg">
 <title>Asset 20</title>
 <g data-name="Layer 2">
  <polygon points="98.91 45.36 73.06 48.87 57.11 28.24 82.95 24.73"/>
  <path d="M28,46.34c-7.32-.94-14.89-1.92-22.27-5.1A6.81,6.81,0,0,1,2,35.81a6.85,6.85,0,0,1,3.35-5.25c7.49,3.14,15,4.12,22.34,5.06,7,.9,14.19,1.86,21.26,4.7l.75-1.85C42.42,35.53,35.07,34.56,28,33.64,21.41,32.8,14.66,31.91,8,29.46,14.66,27,21.41,26.12,28,25.27c7.45-1,15.16-1.95,22.8-5.24a8.82,8.82,0,0,0,4.9-7.33V1.06A1.06,1.06,0,0,0,54.6,0h0a1,1,0,0,0-1,.86A7,7,0,0,1,50,5.49C42.59,8.67,35,9.65,27.7,10.59S12.54,12.54,4.9,15.84A8.82,8.82,0,0,0,0,23.05H0V35.86H0A8.82,8.82,0,0,0,4.9,43.07c7.64,3.3,15.35,4.29,22.8,5.25a105,105,0,0,1,16.7,3.12l.77-1.86A105,105,0,0,0,28,46.34Z"/>
  <path d="M50.76,66.17a6.73,6.73,0,0,0,1.47-.91L43.44,53.89A109.54,109.54,0,0,1,27.7,56.73c-7.45,1-15.16,2-22.8,5.25A8.82,8.82,0,0,0,0,69.19H0V82H0A8.82,8.82,0,0,0,4.9,89.22c7.64,3.29,15.35,4.29,22.8,5.25,6.51.83,13.21,1.71,19.81,4.13-6.6,2.42-13.3,3.29-19.81,4.13-7.45,1-15.16,2-22.8,5.24A8.84,8.84,0,0,0,0,115.3v11.64A1.05,1.05,0,0,0,1.06,128h0a1,1,0,0,0,1-.86,7,7,0,0,1,3.6-4.63c7.38-3.18,15-4.16,22.27-5.1s15.16-2,22.8-5.25a8.84,8.84,0,0,0,4.88-7.1h0V92.14h0A8.84,8.84,0,0,0,50.76,85c-7.64-3.29-15.35-4.29-22.8-5.25C21.41,78.94,14.66,78.06,8,75.6c6.64-2.46,13.39-3.34,19.94-4.18C35.41,70.46,43.12,69.46,50.76,66.17ZM27.7,81.77c7.32.94,14.89,1.91,22.27,5.1a6.83,6.83,0,0,1,3.68,5.38,6.88,6.88,0,0,1-3.46,5.26c-7.45-3.11-15-4.09-22.23-5s-14.89-1.92-22.27-5.1A6.8,6.8,0,0,1,2,82,6.86,6.86,0,0,1,5.36,76.7C12.85,79.84,20.4,80.83,27.7,81.77Z"/>
  <polygon points="71.55 50.04 61.66 74.18 45.7 53.55 55.59 29.41"/>
  <polygon points="78.8 69.74 82.35 95.58 106.52 105.42 102.96 79.57"/>
  <polygon points="79.52 67.96 103.68 77.81 124.28 61.8 100.13 51.96"/>
  <polygon points="76.61 67.82 77.46 67.14 97.36 51.7 99.17 47.26 73.32 50.76 63.43 74.91 77.32 73.03 76.75 68.9"/>
  <polygon points="104.85 79.31 108.41 105.16 129.01 89.16 125.46 63.32"/>
 </g>
</svg>
