<svg height="100" width="100" xmlns="http://www.w3.org/2000/svg" viewBox="0 0 129.01 128"><g data-name="Layer 2"><path d="m98.91 45.36-25.85 3.51-15.95-20.63 25.84-3.51 15.96 20.63zM28 46.34c-7.32-.94-14.89-1.92-22.27-5.1A6.81 6.81 0 0 1 2 35.81a6.85 6.85 0 0 1 3.35-5.25c7.49 3.14 15 4.12 22.34 5.06 7 .9 14.19 1.86 21.26 4.7l.75-1.85c-7.28-2.94-14.63-3.91-21.7-4.83-6.59-.84-13.34-1.73-20-4.18 6.66-2.46 13.41-3.34 20-4.19 7.45-1 15.16-1.95 22.8-5.24a8.82 8.82 0 0 0 4.9-7.33V1.06A1.06 1.06 0 0 0 54.6 0a1 1 0 0 0-1 .86A7 7 0 0 1 50 5.49c-7.41 3.18-15 4.16-22.3 5.1s-15.16 1.95-22.8 5.25A8.82 8.82 0 0 0 0 23.05v12.81a8.82 8.82 0 0 0 4.9 7.21c7.64 3.3 15.35 4.29 22.8 5.25a105 105 0 0 1 16.7 3.12l.77-1.86A105 105 0 0 0 28 46.34zM50.76 66.17a6.73 6.73 0 0 0 1.47-.91l-8.79-11.37a109.54 109.54 0 0 1-15.74 2.84c-7.45 1-15.16 2-22.8 5.25A8.82 8.82 0 0 0 0 69.19V82a8.82 8.82 0 0 0 4.9 7.22c7.64 3.29 15.35 4.29 22.8 5.25 6.51.83 13.21 1.71 19.81 4.13-6.6 2.42-13.3 3.29-19.81 4.13-7.45 1-15.16 2-22.8 5.24A8.84 8.84 0 0 0 0 115.3v11.64A1.05 1.05 0 0 0 1.06 128a1 1 0 0 0 1-.86 7 7 0 0 1 3.6-4.63c7.38-3.18 15-4.16 22.27-5.1s15.16-2 22.8-5.25a8.84 8.84 0 0 0 4.88-7.1V92.14A8.84 8.84 0 0 0 50.76 85c-7.64-3.29-15.35-4.29-22.8-5.25-6.55-.81-13.3-1.69-19.96-4.15 6.64-2.46 13.39-3.34 19.94-4.18 7.47-.96 15.18-1.96 22.82-5.25zM27.7 81.77c7.32.94 14.89 1.91 22.27 5.1a6.83 6.83 0 0 1 3.68 5.38 6.88 6.88 0 0 1-3.46 5.26c-7.45-3.11-15-4.09-22.23-5s-14.89-1.92-22.27-5.1A6.8 6.8 0 0 1 2 82a6.86 6.86 0 0 1 3.36-5.3c7.49 3.14 15.04 4.13 22.34 5.07zM71.55 50.04l-9.89 24.14L45.7 53.55l9.89-24.14 15.96 20.63zM78.8 69.74l3.55 25.84 24.17 9.84-3.56-25.85-24.16-9.83zM79.52 67.96l24.16 9.85 20.6-16.01-24.15-9.84-20.61 16z"/><path d="m76.61 67.82.85-.68 19.9-15.44 1.81-4.44-25.85 3.5-9.89 24.15 13.89-1.88-.57-4.13-.14-1.08zM104.85 79.31l3.56 25.85 20.6-16-3.55-25.84-20.61 15.99z"/></g></svg>