<svg height='100px' width='100px'  fill="#000000" xmlns="http://www.w3.org/2000/svg" data-name="Layer 1" viewBox="0 0 64 64" x="0px" y="0px"><path d="M32,62A30,30,0,1,0,2,32,30.034,30.034,0,0,0,32,62ZM32,4A28,28,0,1,1,4,32,28.032,28.032,0,0,1,32,4Z"></path><path d="M23,45A13,13,0,1,0,10,32,13.015,13.015,0,0,0,23,45Zm0-24A11,11,0,1,1,12,32,11.013,11.013,0,0,1,23,21Z"></path><path d="M19,36a4,4,0,1,0-4-4A4,4,0,0,0,19,36Zm0-6a2,2,0,1,1-2,2A2,2,0,0,1,19,30Z"></path><path d="M43,32a19.973,19.973,0,0,1-.679,5.149l-1.908-.6c.117-.451.225-.906.308-1.371a1,1,0,0,0-1.969-.35A15.971,15.971,0,0,1,23,48a1,1,0,0,0,0,2,17.978,17.978,0,0,0,11.547-4.178l1.471,1.358a20.1,20.1,0,0,1-3.495,2.412,1,1,0,0,0,.954,1.758c.422-.229.832-.472,1.234-.726L35.8,52.3a24,24,0,0,1-4.159,2.1A1,1,0,0,0,32,56.332a.99.99,0,0,0,.36-.068,25.9,25.9,0,0,0,5.31-2.81c.019-.01.04-.014.059-.026s.031-.036.051-.05A26.077,26.077,0,0,0,42.9,48.724s.011-.006.016-.011.022-.039.038-.056c.289-.347.58-.693.852-1.056a1,1,0,1,0-1.6-1.2c-.024.032-.05.06-.074.091l-1.423-1.447a21.974,21.974,0,0,0,3.21-6.25.836.836,0,0,0,.04-.079c.008-.024,0-.048.008-.072A21.971,21.971,0,0,0,45,32c0-.412-.025-.821-.047-1.23l2-.312C46.982,30.97,47,31.485,47,32a24.25,24.25,0,0,1-.48,4.8A1,1,0,0,0,47.3,37.98a.976.976,0,0,0,.2.02,1,1,0,0,0,.979-.8,25.591,25.591,0,0,0,.36-7.991c0-.02,0-.039,0-.059s-.009-.019-.011-.029a25.968,25.968,0,0,0-2.952-9.48,1,1,0,1,0-1.758.952,23.961,23.961,0,0,1,2.607,7.876l-1.969.308a22,22,0,0,0-.806-3.5,1,1,0,0,0-1.905.61A19.993,19.993,0,0,1,43,32Zm-1.293,7.053A19.987,19.987,0,0,1,37.468,45.8L36,44.444a17.879,17.879,0,0,0,3.8-5.993Zm-.865,8.983a24.073,24.073,0,0,1-3.392,3.129l-1.1-1.689a22.009,22.009,0,0,0,3.091-2.864Z"></path><path d="M15,46H14a1,1,0,0,0,0,2h1a1,1,0,0,0,0-2Z"></path><path d="M51,44H50a1,1,0,0,0,0,2h1a1,1,0,0,0,0-2Z"></path><path d="M27,56H26a1,1,0,0,0,0,2h1a1,1,0,0,0,0-2Z"></path><path d="M56,35H55a1,1,0,0,0,0,2h1a1,1,0,0,0,0-2Z"></path><path d="M38,27a1,1,0,0,0,0-2H37a1,1,0,0,0,0,2Z"></path><path d="M32,16c5.7,0,10-2.149,10-5,0-1.585-1.332-2.951-3.492-3.854h0A17.2,17.2,0,0,0,32,6a17.817,17.817,0,0,0-5.975.943l-.008,0C23.552,7.839,22,9.291,22,11,22,13.851,26.3,16,32,16ZM25.409,9.421v1.4a1,1,0,0,0,2,0V8.6A15.8,15.8,0,0,1,31,8.028V11a1,1,0,0,0,2,0V8.028a15.214,15.214,0,0,1,4.118.743v1.934a1,1,0,0,0,2,0V9.756A1.769,1.769,0,0,1,40,11c0,.769-1.233,1.756-3.36,2.383V11a1,1,0,0,0-2,0v2.813A18.255,18.255,0,0,1,32,14c-.624,0-1.218-.03-1.781-.083V10.565a1,1,0,1,0-2,0V13.6C25.57,13.008,24,11.867,24,11,24,10.512,24.5,9.937,25.409,9.421Z"></path><path d="M53,28a4,4,0,1,0-4-4A4,4,0,0,0,53,28Zm0-6a2,2,0,1,1-2,2A2,2,0,0,1,53,22Z"></path><path d="M14,20a3,3,0,1,0-3-3A3,3,0,0,0,14,20Zm0-4a1,1,0,1,1-1,1A1,1,0,0,1,14,16Z"></path></svg>