<svg height='100px' width='100px'  fill="#000000" xmlns="http://www.w3.org/2000/svg" xmlns:xlink="http://www.w3.org/1999/xlink" version="1.1" x="0px" y="0px" viewBox="0 0 64 64" style="enable-background:new 0 0 64 64;" xml:space="preserve"><g><path d="M55.385,11.657C56.372,10.743,57,9.448,57,8c0-2.757-2.243-5-5-5c-1.779,0-3.333,0.941-4.22,2.344   c-1.112-0.659-2.257-1.262-3.439-1.776C43.484,2.044,41.87,1,40,1c-0.802,0-1.55,0.208-2.222,0.545C35.884,1.187,33.943,1,32,1   C14.906,1,1,14.906,1,32s13.906,31,31,31s31-13.906,31-31C63,24.476,60.302,17.301,55.385,11.657z M51.445,26.62   c-0.087-0.105-0.165-0.215-0.256-0.318l-3.598-4.077c0.387-0.523,0.929-0.911,1.548-1.098c0.429,1.848,1.88,3.3,3.727,3.731   C52.64,25.605,52.129,26.239,51.445,26.62z M29,12c0-2.757,2.243-5,5-5c0.392,0,0.772,0.061,1.146,0.149   c0.434,1.832,1.873,3.271,3.705,3.705C38.939,11.228,39,11.608,39,12c0,0.986-0.302,1.935-0.84,2.748   C35.493,13.612,32.6,13,29.638,13c-0.174,0-0.349,0.01-0.523,0.015C29.045,12.681,29,12.344,29,12z M45.901,20.312   c-1.323-1.49-2.832-2.774-4.475-3.834C41.958,15.586,42.929,15,44,15c1.654,0,3,1.346,3,3C47,18.904,46.582,19.749,45.901,20.312z    M29.638,15c5.663,0,11.06,2.436,14.807,6.683l5.245,5.942C51.824,30.046,53,33.155,53,36.382c0,4.436-2.203,8.552-5.894,11.012   L44.4,49.2l-4.55,3.411C37.798,54.151,35.253,55,32.686,55c-2.788,0-5.503-0.983-7.646-2.769c-1.637-1.363-3.405-2.592-5.257-3.649   l-2.578-1.474C12.144,44.217,9,38.799,9,32.969c0-6.277,3.67-12.061,9.351-14.734l2.879-1.354C23.842,15.649,26.749,15,29.638,15z    M54,23c-1.654,0-3-1.346-3-3s1.346-3,3-3s3,1.346,3,3S55.654,23,54,23z M52,5c1.654,0,3,1.346,3,3s-1.346,3-3,3s-3-1.346-3-3   S50.346,5,52,5z M52,13c0.576,0,1.121-0.118,1.637-0.298c0.75,0.841,1.454,1.714,2.096,2.626C55.191,15.126,54.611,15,54,15   c-2.447,0-4.48,1.769-4.908,4.094c-0.08,0.015-0.159,0.034-0.238,0.053C48.942,18.774,49,18.392,49,18c0-2.757-2.243-5-5-5   c-1.3,0-2.511,0.523-3.42,1.377C40.853,13.621,41,12.818,41,12c0-0.369-0.037-0.732-0.093-1.092   c2.296-0.424,4.042-2.415,4.084-4.821c0.712,0.357,1.406,0.745,2.085,1.159C47.038,7.494,47,7.742,47,8C47,10.757,49.243,13,52,13z    M43,6c0,1.654-1.346,3-3,3s-3-1.346-3-3s1.346-3,3-3S43,4.346,43,6z M32,61C16.01,61,3,47.99,3,32S16.01,3,32,3   c1.282,0,2.562,0.092,3.827,0.259c-0.36,0.547-0.612,1.167-0.735,1.834C34.732,5.037,34.369,5,34,5c-3.859,0-7,3.141-7,7   c0,0.389,0.036,0.774,0.099,1.154c-2.324,0.276-4.611,0.922-6.722,1.915l-2.879,1.355C11.121,19.427,7,25.921,7,32.969   c0,6.546,3.53,12.629,9.213,15.876l2.578,1.474c1.75,1,3.422,2.161,4.969,3.45C26.261,55.853,29.431,57,32.686,57   c2.997,0,5.969-0.99,8.365-2.789l4.504-3.379l2.661-1.774C52.464,46.226,55,41.487,55,36.382c0-2.904-0.838-5.721-2.374-8.146   c1.183-0.739,2.023-1.947,2.282-3.328c1.968-0.364,3.531-1.878,3.965-3.82C60.265,24.517,61,28.211,61,32C61,47.99,47.99,61,32,61z   "></path><path d="M13,34c0,4.963,3.141,9,7,9s7-4.037,7-9s-3.141-9-7-9S13,29.037,13,34z M25,34c0,3.859-2.243,7-5,7s-5-3.141-5-7   s2.243-7,5-7S25,30.141,25,34z"></path></g></svg>