<svg xmlns="http://www.w3.org/2000/svg" viewBox="0.0 0.0 24.0 24.0" height="200px" width="200px"><path fill="black" fill-opacity="1.0"  filling="0" d="M12.0 23.25 A11.25 11.25 0.0 1 0 0.75 12.0 A11.262750625610352 11.262750625610352 0.0 0 0 12.0 23.25 Z M12.0 1.5 A10.5 10.5 0.0 1 1 1.5 12.0 A10.51200008392334 10.51200008392334 0.0 0 1 12.0 1.5 Z"></path>
<path fill="black" fill-opacity="1.0"  filling="0" d="M8.625 16.875 A4.875 4.875 0.0 1 0 3.75 12.0 A4.880625247955322 4.880625247955322 0.0 0 0 8.625 16.875 Z M8.625 7.875 A4.125 4.125 0.0 1 1 4.5 12.0 A4.1298747062683105 4.1298747062683105 0.0 0 1 8.625 7.875 Z"></path>
<path fill="black" fill-opacity="1.0"  filling="0" d="M7.125 13.5 A1.5 1.5 0.0 1 0 5.625 12.0 A1.5 1.5 0.0 0 0 7.125 13.5 Z M7.125 11.25 A0.75 0.75 0.0 1 1 6.375 12.0 A0.75 0.75 0.0 0 1 7.125 11.25 Z"></path>
<path fill="black" fill-opacity="1.0"  filling="0" d="M16.125 12.0 A7.489874839782715 7.489874839782715 0.0 0 1 15.87037467956543 13.930875778198242 L15.154874801635742 13.705876350402832 C15.198749542236328 13.536750793457031 15.239248275756836 13.366127014160156 15.270374298095703 13.191751480102539 A0.375 0.375 0.0 0 0 14.531997680664062 13.060503005981445 A5.989124774932861 5.989124774932861 0.0 0 1 8.625 18.0 A0.375 0.375 0.0 0 0 8.625 18.75 A6.741750240325928 6.741750240325928 0.0 0 0 12.95512580871582 17.183250427246094 L13.506750106811523 17.692501068115234 A7.537500381469727 7.537500381469727 0.0 0 1 12.196125984191895 18.597000122070312 A0.375 0.375 0.0 0 0 12.553874969482422 19.256248474121094 C12.712125778198242 19.170373916625977 12.865875244140625 19.07925033569336 13.016626358032227 18.983999252319336 L13.424999237060547 19.612499237060547 A9.0 9.0 0.0 0 1 11.865374565124512 20.399999618530273 A0.375 0.375 0.0 0 0 12.0 21.124500274658203 A0.3712500035762787 0.3712500035762787 0.0 0 0 12.135000228881836 21.0989990234375 A9.712499618530273 9.712499618530273 0.0 0 0 14.126251220703125 20.045249938964844 C14.133376121520996 20.041500091552734 14.141250610351562 20.03999900817871 14.148374557495117 20.035499572753906 C14.155498504638672 20.03099822998047 14.15999984741211 20.02199935913086 14.167499542236328 20.01675033569336 A9.778875350952148 9.778875350952148 0.0 0 0 16.087501525878906 18.271499633789062 C16.087501525878906 18.271499633789062 16.091625213623047 18.269248962402344 16.0935001373291 18.26737403869629 C16.095375061035156 18.265499114990234 16.101749420166016 18.252748489379883 16.107749938964844 18.246374130249023 C16.21612548828125 18.116249084472656 16.32525062561035 17.986499786376953 16.427249908447266 17.850374221801758 A0.375 0.375 0.0 1 0 15.827250480651855 17.400373458862305 C15.81825065612793 17.41237449645996 15.808500289916992 17.422874450683594 15.79949951171875 17.434497833251953 L15.265874862670898 16.891874313354492 A8.240250587463379 8.240250587463379 0.0 0 0 16.469623565673828 14.548124313354492 A0.3135000169277191 0.3135000169277191 0.0 0 0 16.4846248626709 14.518499374389648 C16.487625122070312 14.509500503540039 16.4846248626709 14.500499725341797 16.487625122070312 14.491500854492188 A8.23912525177002 8.23912525177002 0.0 0 0 16.875 12.0 C16.875 11.845499992370605 16.865623474121094 11.69212532043457 16.85737419128418 11.538749694824219 L17.60737419128418 11.42175006866455 C17.618249893188477 11.613749504089355 17.625 11.806875228881836 17.625 12.0 A9.09375 9.09375 0.0 0 1 17.44499969482422 13.799999237060547 A0.375 0.375 0.0 0 0 17.737499237060547 14.242500305175781 A0.3659999966621399 0.3659999966621399 0.0 0 0 17.8125 14.25 A0.375 0.375 0.0 0 0 18.179624557495117 13.950000762939453 A9.596624374389648 9.596624374389648 0.0 0 0 18.314624786376953 10.953374862670898 C18.314624786376953 10.94587516784668 18.314624786376953 10.938750267028809 18.314624786376953 10.931249618530273 C18.314624786376953 10.923749923706055 18.311250686645508 10.924125671386719 18.31049919128418 10.920374870300293 A9.73799991607666 9.73799991607666 0.0 0 0 17.20349884033203 7.365375518798828 A0.375 0.375 0.0 1 0 16.54425048828125 7.72237491607666 A8.98537540435791 8.98537540435791 0.0 0 1 17.521873474121094 10.675874710083008 L16.783498764038086 10.791375160217285 A8.25 8.25 0.0 0 0 16.48124885559082 9.478875160217285 A0.375 0.375 0.0 0 0 15.766874313354492 9.707625389099121 A7.497375011444092 7.497375011444092 0.0 0 1 16.125 12.0 Z M15.640125274658203 14.644875526428223 A7.495124816894531 7.495124816894531 0.0 0 1 14.050498962402344 17.174999237060547 L13.5 16.666500091552734 A6.704625129699707 6.704625129699707 0.0 0 0 14.924999237060547 14.419124603271484 Z M15.315750122070312 18.013500213623047 A9.027375221252441 9.027375221252441 0.0 0 1 14.043750762939453 19.18687629699707 L13.631250381469727 18.55350112915039 A8.253375053405762 8.253375053405762 0.0 0 0 14.790375709533691 17.479503631591797 Z"></path>
<path fill="black" fill-opacity="1.0"  filling="0" d="M5.625 17.25 L5.25 17.25 A0.375 0.375 0.0 0 0 5.25 18.0 L5.625 18.0 A0.375 0.375 0.0 0 0 5.625 17.25 Z"></path>
<path fill="black" fill-opacity="1.0"  filling="0" d="M19.125 16.5 L18.75 16.5 A0.375 0.375 0.0 0 0 18.75 17.25 L19.125 17.25 A0.375 0.375 0.0 0 0 19.125 16.5 Z"></path>
<path fill="black" fill-opacity="1.0"  filling="0" d="M10.125 21.0 L9.75 21.0 A0.375 0.375 0.0 0 0 9.75 21.75 L10.125 21.75 A0.375 0.375 0.0 0 0 10.125 21.0 Z"></path>
<path fill="black" fill-opacity="1.0"  filling="0" d="M21.0 13.125 L20.625 13.125 A0.375 0.375 0.0 0 0 20.625 13.875 L21.0 13.875 A0.375 0.375 0.0 0 0 21.0 13.125 Z"></path>
<path fill="black" fill-opacity="1.0"  filling="0" d="M14.25 10.125 A0.375 0.375 0.0 0 0 14.25 9.375 L13.875 9.375 A0.375 0.375 0.0 0 0 13.875 10.125 Z"></path>
<path fill="black" fill-opacity="1.0"  filling="0" d="M12.0 6.0 C14.137500762939453 6.0 15.75 5.194125175476074 15.75 4.125 C15.75 3.530625343322754 15.250499725341797 3.0183753967285156 14.440500259399414 2.679750442504883 L14.440500259399414 2.679750442504883 A6.450000286102295 6.450000286102295 0.0 0 0 12.0 2.25 A6.681374549865723 6.681374549865723 0.0 0 0 9.759374618530273 2.6036252975463867 L9.756375312805176 2.6036252975463867 C8.831999778747559 2.939624786376953 8.25 3.4841251373291016 8.25 4.125 C8.25 5.194125175476074 9.862499237060547 6.0 12.0 6.0 Z M9.528375625610352 3.5328750610351562 L9.528375625610352 4.05787467956543 A0.375 0.375 0.0 0 0 10.278375625610352 4.05787467956543 L10.278375625610352 3.2250003814697266 A5.925000190734863 5.925000190734863 0.0 0 1 11.625 3.010499954223633 L11.625 4.125 A0.375 0.375 0.0 0 0 12.375 4.125 L12.375 3.010499954223633 A5.705249786376953 5.705249786376953 0.0 0 1 13.91925048828125 3.289125442504883 L13.91925048828125 4.014374732971191 A0.375 0.375 0.0 0 0 14.66925048828125 4.014374732971191 L14.66925048828125 3.6585006713867188 A0.6633750200271606 0.6633750200271606 0.0 0 1 15.0 4.125 C15.0 4.413375377655029 14.53762435913086 4.7835001945495605 13.739999771118164 5.018624782562256 L13.739999771118164 4.125 A0.375 0.375 0.0 0 0 12.989999771118164 4.125 L12.989999771118164 5.179874897003174 A6.845624923706055 6.845624923706055 0.0 0 1 12.0 5.25 C11.765999794006348 5.25 11.54325008392334 5.238750457763672 11.332124710083008 5.218874931335449 L11.332124710083008 3.961874008178711 A0.375 0.375 0.0 1 0 10.582124710083008 3.961874008178711 L10.582124710083008 5.100000381469727 C9.588749885559082 4.877999782562256 9.0 4.450125217437744 9.0 4.125 C9.0 3.942000389099121 9.1875 3.7263755798339844 9.528375625610352 3.5328750610351562 Z"></path>
<path fill="black" fill-opacity="1.0"  filling="0" d="M19.875 10.5 A1.5 1.5 0.0 1 0 18.375 9.0 A1.5 1.5 0.0 0 0 19.875 10.5 Z M19.875 8.25 A0.75 0.75 0.0 1 1 19.125 9.0 A0.75 0.75 0.0 0 1 19.875 8.25 Z"></path>
<path fill="black" fill-opacity="1.0"  filling="0" d="M5.25 7.5 A1.125 1.125 0.0 1 0 4.125 6.375 A1.125 1.125 0.0 0 0 5.25 7.5 Z M5.25 6.0 A0.375 0.375 0.0 1 1 4.875 6.375 A0.375 0.375 0.0 0 1 5.25 6.0 Z"></path></svg>