<svg height='100px' width='100px'  fill="#000000" xmlns="http://www.w3.org/2000/svg" xmlns:xlink="http://www.w3.org/1999/xlink" version="1.1" x="0px" y="0px" viewBox="0 0 66 66" enable-background="new 0 0 66 66" xml:space="preserve"><g><g><path d="M49.8,24.2c-0.5,5.1-3.3,3.1-2.6,1.8c1.7-3.1-0.2-6.1-2.7-6.7c0.3,6-7.3,8.1-7.3,5.6c0-0.6,0.4-1,1-1    c5.9,0,5.6-9.3-0.5-8.5c-1.9,0.2-3.7,1.6-3.7,4.2v26.7c0,5.1,7.2,5.8,8.4,1.1c0.8-3-1.5-5.4-4.1-5.4c-0.6,0-1-0.4-1-1    c0-2.5,7.7-0.3,7.3,5.8c2.8,0,4.8-2.8,4.1-5.3c-1.2,0.3-4.9,0.4-4.5-1.3c0.4-1.7,2.6,0.1,4.6-0.9c2-1.3,2.7-4.1,0.9-6.4    c0,0,0,0-0.1-0.1c0-0.1-0.8-1-3.5-1.6c-1.3-0.3-0.9-2.2,0.4-2c2.1,0.5,3.3,1.1,4,1.7c1.2-1.1,1.5-2.7,1.2-3.8    C51.7,26.1,51,24.9,49.8,24.2z M43.3,28.8c0.2,0.5,0,1.1-0.5,1.3c-0.2,0.1-1.2,0.7-0.9,2c0.3,1.3-1.6,1.8-1.9,0.5    C39.3,29.5,42.5,27.1,43.3,28.8z M43.9,37.8c-1.5-1.3-3.7,1.3-4.5-0.3c0,0-0.7-1.2-3.4-1.9c-1.3-0.3-0.8-2.3,0.5-1.9    c2.2,0.6,3.4,1.5,4.1,2.1c3-1.2,4.7,0.5,4.7,0.5C46.2,37.4,44.8,38.7,43.9,37.8z"></path></g><g><path d="M23.4,19.7c0,2.4,1.9,4.3,4.3,4.3c1.3,0,1.3,2,0,2c-3.5,0-6.5-2.9-6.3-6.6C18.8,20,17.1,23,18.7,26    c0.7,1.4-2.1,3.2-2.6-1.8c-2.4,1.4-2.8,4.9-0.8,6.8c0.7-0.5,1.9-1.2,4-1.7c1.3-0.3,1.7,1.7,0.4,2c-3.1,0.7-5,2.2-4.6,5.1    c0.2,1.2,0.9,2.3,1.9,2.9c0.1,0.1,1.2,0.6,3.4,0.1c1.3-0.3,1.7,1.7,0.4,2c-1.2,0.3-2.5,0.4-3.7,0.1c-0.7,2.6,1.3,5.3,4.1,5.3    c-0.4-6.1,7.3-8.3,7.3-5.8c0,0.6-0.4,1-1,1c-5.6,0-5.8,8.6,0,8.6c2.4,0,4.3-1.9,4.3-4.3V19.7C32,14,23.4,14,23.4,19.7z M22.7,28.8    c0.2-0.5,0.8-0.7,1.3-0.5c2.8,1.3,2.5,5.4,0.8,5c-0.5-0.1-0.9-0.7-0.7-1.2C24.5,30,22,30.3,22.7,28.8z M30,35.7    c-3.9,1-3.3,3-4.7,2.3c-2.1-1.1-3.1-0.2-3.2-0.2c-1,0.9-2.3-0.5-1.4-1.4c0.1-0.1,1.7-1.7,4.7-0.5c1.2-1.2,4.8-3.2,5.3-1.4    C30.8,35,30.5,35.6,30,35.7z"></path></g><g><path d="M64,25.6c0.5,0,1-0.5,1-1c0-0.6-0.5-1-1-1h-5.5v-6.4H64c0.5,0,1-0.5,1-1c0-0.6-0.5-1-1-1h-5.5v-1.4c0-3.4-2.8-6.2-6.2-6.2    h-1.4V2c0-0.6-0.5-1-1-1c-0.6,0-1,0.4-1,1v5.5h-6.5V2c0-0.6-0.4-1-1-1c-0.5,0-1,0.4-1,1v5.5H34V2c0-0.6-0.5-1-1-1s-1,0.4-1,1v5.5    h-6.5V2c0-0.6-0.4-1-1-1c-0.6,0-1,0.4-1,1v5.5h-6.4V2c0-0.6-0.5-1-1-1c-0.6,0-1,0.4-1,1v5.5h-1.4c-3.4,0-6.2,2.8-6.2,6.2v1.4H2    c-0.5,0-1,0.4-1,1c0,0.5,0.4,1,1,1h5.5v6.4H2c-0.5,0-1,0.4-1,1c0,0.5,0.4,1,1,1h5.5V32H2c-0.5,0-1,0.5-1,1c0,0.6,0.4,1,1,1h5.5    v6.5H2c-0.5,0-1,0.4-1,1c0,0.5,0.4,1,1,1h5.5v6.4H2c-0.5,0-1,0.5-1,1c0,0.6,0.4,1,1,1h5.5v1.4c0,3.4,2.8,6.2,6.2,6.2h1.4V64    c0,0.6,0.4,1,1,1c0.5,0,1-0.4,1-1v-5.5h6.4V64c0,0.6,0.4,1,1,1c0.6,0,1-0.4,1-1v-5.5H32V64c0,0.6,0.5,1,1,1s1-0.4,1-1v-5.5h6.4V64    c0,0.6,0.5,1,1,1c0.6,0,1-0.4,1-1v-5.5h6.5V64c0,0.6,0.4,1,1,1c0.5,0,1-0.4,1-1v-5.5h1.4c3.4,0,6.2-2.8,6.2-6.2v-1.4H64    c0.5,0,1-0.4,1-1c0-0.5-0.5-1-1-1h-5.5v-6.4H64c0.5,0,1-0.5,1-1c0-0.6-0.5-1-1-1h-5.5V34H64c0.5,0,1-0.4,1-1c0-0.5-0.5-1-1-1h-5.5    v-6.4H64z M50.5,40.5c1.4,4.1-1.9,8.6-6.4,8.3c-2.1,4.9-8.6,5-11.2,0.9c-2.7,4.3-9.1,3.7-11.1-0.9c-2.1,0.1-4.1-0.7-5.4-2.4    c-1.3-1.7-1.7-3.9-1-5.8c-2.3-2-2.9-5.4-1.3-8c-3.5-3.2-2.3-9,2.2-10.6c0.7-2.7,3.3-4.6,5.6-4.7c1.8-4.7,8.5-5.2,11.1-1    c2.7-4.2,9.3-3.7,11.1,1c2.3,0.1,4.8,1.9,5.6,4.7c4.5,1.5,5.6,7.4,2.2,10.6C53.4,35.2,52.9,38.5,50.5,40.5z"></path></g></g></svg>