<svg height='100px' width='100px'  fill="#FFFFFF" xmlns="http://www.w3.org/2000/svg" xmlns:xlink="http://www.w3.org/1999/xlink" xml:space="preserve" version="1.1" style="shape-rendering:geometricPrecision;text-rendering:geometricPrecision;image-rendering:optimizeQuality;" viewBox="0 0 846.66 846.66" x="0px" y="0px" fill-rule="evenodd" clip-rule="evenodd"><defs><style type="text/css">
   
    .fil0 {fill:#FFFFFF}
   
  </style></defs><g><path class="fil0" d="M476.21 96.59c-93.92,0 -178.6,39.61 -238.18,103.06l238.18 223.69 -245.19 215.96c59.89,67.91 147.46,110.77 245.19,110.77 180.4,0 326.73,-146.23 326.73,-326.73 0,-180.42 -146.33,-326.75 -326.73,-326.75zm-377.85 306.54c30.12,0 54.61,24.48 54.61,54.62 0,30.13 -24.49,54.61 -54.61,54.61 -30.14,0 -54.63,-24.48 -54.63,-54.61 0,-30.14 24.49,-54.62 54.63,-54.62zm97.33 -91.48c30.13,0 54.64,24.5 54.64,54.63 0,30.14 -24.51,54.62 -54.64,54.62 -30.12,0 -54.62,-24.48 -54.62,-54.62 0,-30.13 24.5,-54.63 54.62,-54.63zm116.8 59.59c30.13,0 54.63,24.48 54.63,54.61 0,30.14 -24.5,54.62 -54.63,54.62 -30.13,0 -54.62,-24.48 -54.62,-54.62 0,-30.13 24.49,-54.61 54.62,-54.61zm173.94 -202.54c41.8,0 75.68,33.86 75.68,75.67 0,41.8 -33.88,75.68 -75.68,75.68 -41.8,0 -75.67,-33.88 -75.67,-75.68 0,-41.81 33.87,-75.67 75.67,-75.67z"></path></g></svg>