<svg height='100px' width='100px'  fill="#000000" xmlns="http://www.w3.org/2000/svg" xmlns:xlink="http://www.w3.org/1999/xlink" xml:space="preserve" version="1.1" style="shape-rendering:geometricPrecision;text-rendering:geometricPrecision;image-rendering:optimizeQuality;" viewBox="0 0 846.66 846.66" x="0px" y="0px" fill-rule="evenodd" clip-rule="evenodd"><defs><style type="text/css">
   
    .fil0 {fill:#000000;fill-rule:nonzero}
   
  </style></defs><g><path class="fil0" d="M496.92 111.91c-102.79,0 -170.4,41.52 -240.08,111.41l200.33 199.83 -201.51 198.86c70.34,71.15 138.4,112.74 241.26,112.74 171.87,0 311.45,-139.5 311.45,-311.46 0,-171.95 -139.5,-311.38 -311.45,-311.38zm-198.86 269.2c-29.12,0 -52.8,23.68 -52.8,52.8 0,29.12 23.68,52.8 52.8,52.8 29.12,0 52.8,-23.68 52.8,-52.8 0,-29.12 -23.68,-52.8 -52.8,-52.8zm-94.08 -88.4c-29.14,0 -52.8,23.67 -52.8,52.8 0,29.12 23.66,52.79 52.8,52.79 29.12,0 52.78,-23.67 52.78,-52.79 0,-29.13 -23.66,-52.8 -52.78,-52.8zm-112.89 57.58c-29.14,0 -52.8,23.67 -52.8,52.8 0,29.12 23.66,52.79 52.8,52.79 29.12,0 52.78,-23.67 52.78,-52.79 0,-29.13 -23.66,-52.8 -52.78,-52.8zm452.8 -157.34c-47.63,0 -86.57,38.93 -86.57,86.56 0,47.64 38.94,86.57 86.57,86.57 47.63,0 86.56,-38.93 86.56,-86.57 0,-47.63 -38.93,-86.56 -86.56,-86.56zm0 56.18c16.96,0 30.37,13.42 30.37,30.38 0,16.96 -13.41,30.38 -30.37,30.38 -16.96,0 -30.38,-13.42 -30.38,-30.38 0,-16.96 13.42,-30.38 30.38,-30.38zm-46.97 -81.04c141.05,0 255.27,114.14 255.27,255.2 0,141.14 -114.14,255.28 -255.27,255.28 -58.99,0 -115.32,-19.91 -160.97,-57.15l200.71 -197.98 -199.6 -199.16c45.5,-36.57 101.46,-56.19 159.86,-56.19z"></path></g></svg>