<svg xmlns="http://www.w3.org/2000/svg" viewBox="0.0 0.0 24.0 24.0" height="200px" width="200px"><path fill="black" fill-opacity="1.0"  filling="0" d="M18.694799423217773 7.695599555969238 A7.776000022888184 7.776000022888184 0.0 0 0 17.219999313354492 5.7515997886657715"></path>
<path fill="black" fill-opacity="1.0"  filling="0" d="M19.559999465942383 10.531200408935547 A7.76039981842041 7.76039981842041 0.0 0 0 19.356000900268555 9.388800621032715"></path>
<path fill="black" fill-opacity="1.0"  filling="0" d="M17.639999389648438 16.45800018310547 A7.736400127410889 7.736400127410889 0.0 0 0 19.042800903320312 14.195999145507812"></path>
<path fill="black" fill-opacity="1.0"  filling="0" d="M15.152399063110352 18.31679916381836 A7.783199787139893 7.783199787139893 0.0 0 0 16.285198211669922 17.662799835205078"></path>
<path fill="black" fill-opacity="1.0"  filling="0" d="M9.0 18.479999542236328 A7.355999946594238 7.355999946594238 0.0 0 0 9.849599838256836 18.765600204467773"></path>
<path fill="black" fill-opacity="1.0"  filling="0" d="M5.463600158691406 15.610799789428711 A7.886399745941162 7.886399745941162 0.0 0 0 5.984399795532227 16.301998138427734"></path>
<path fill="black" fill-opacity="1.0"  filling="0" d="M4.214399814605713 12.201600074768066 A7.668000221252441 7.668000221252441 0.0 0 0 4.639200210571289 13.993200302124023"></path>
<path fill="black" fill-opacity="1.0"  filling="0" d="M5.371200084686279 7.180799961090088 A7.615199565887451 7.615199565887451 0.0 0 0 4.716000080108643 8.456399917602539"></path>
<path fill="black" fill-opacity="1.0"  filling="0" d="M12.989999771118164 3.6876001358032227 A7.838399887084961 7.838399887084961 0.0 0 0 11.880000114440918 3.6071996688842773 A7.652400016784668 7.652400016784668 0.0 0 0 10.772400856018066 3.6876001358032227"></path>
<path fill="black" fill-opacity="1.0"  filling="0" d="M17.61119842529297 5.125200271606445 A1.8731999397277832 1.8731999397277832 0.0 1 1 16.52039909362793 2.7108001708984375 A1.8731999397277832 1.8731999397277832 0.0 0 1 17.61119842529297 5.125200271606445"></path>
<path fill="black" fill-opacity="1.0"  filling="0" d="M8.687999725341797 7.489200115203857 A2.668799877166748 2.668799877166748 0.0 1 1 9.452400207519531 3.7919998168945312 A2.66759991645813 2.66759991645813 0.0 0 1 8.687999725341797 7.489200115203857"></path>
<path fill="black" fill-opacity="1.0"  filling="0" d="M19.512001037597656 14.279999732971191 A1.8743999004364014 1.8743999004364014 0.0 1 1 21.471599578857422 12.495599746704102 A1.8731999397277832 1.8731999397277832 0.0 0 1 19.512001037597656 14.279999732971191"></path>
<path fill="black" fill-opacity="1.0"  filling="0" d="M16.412399291992188 17.787599563598633 A0.9095999598503113 0.9095999598503113 0.0 1 1 17.690399169921875 17.645999908447266 A0.9107999801635742 0.9107999801635742 0.0 0 1 16.412399291992188 17.787599563598633"></path>
<path fill="black" fill-opacity="1.0"  filling="0" d="M9.944400787353516 19.445999145507812 A2.668799877166748 2.668799877166748 0.0 1 1 13.224000930786133 21.31439971923828 A2.66759991645813 2.66759991645813 0.0 0 1 9.944400787353516 19.445999145507812"></path>
<path fill="black" fill-opacity="1.0"  filling="0" d="M5.610000133514404 16.90920066833496 A1.8743999004364014 1.8743999004364014 0.0 1 1 6.702000141143799 19.31999969482422 A1.8731999397277832 1.8731999397277832 0.0 0 1 5.610000133514404 16.904399871826172"></path>
<path fill="black" fill-opacity="1.0"  filling="0" d="M4.532400131225586 14.052000045776367 A0.9083999991416931 0.9083999991416931 0.0 1 1 4.271999835968018 15.310799598693848 A0.9083999991416931 0.9083999991416931 0.0 0 1 4.532399654388428 14.052000045776367"></path>
<path fill="black" fill-opacity="1.0"  filling="0" d="M19.049999237060547 7.641600131988525 A0.9083999991416931 0.9083999991416931 0.0 1 1 18.099599838256836 8.506799697875977 A0.9083999991416931 0.9083999991416931 0.0 0 1 19.049999237060547 7.641600131988525"></path>
<path fill="black" fill-opacity="1.0"  filling="0" d="M5.571599960327148 8.869200706481934 A1.8731999397277832 1.8731999397277832 0.0 1 1 2.9376001358032227 9.16080093383789 A1.8731999397277832 1.8731999397277832 0.0 0 1 5.577600002288818 8.869200706481934"></path>
<path fill="black" fill-opacity="1.0"  filling="0" d="M8.15999984741211 7.79040002822876 C8.804400444030762 7.519199848175049 8.919600486755371 6.1763997077941895 8.416799545288086 4.79040002822876 C7.913999557495117 3.404399871826172 6.976799964904785 2.5032005310058594 6.337199687957764 2.774399757385254"></path>
<path fill="black" fill-opacity="1.0"  filling="0" d="M9.753600120544434 4.371600151062012 C9.482399940490723 3.7271995544433594 8.13960075378418 3.6120004653930664 6.753600120544434 4.116000652313232 C5.3675994873046875 4.62000036239624 4.466400146484375 5.556000232696533 4.737600326538086 6.194399833679199"></path>
<path fill="black" fill-opacity="1.0"  filling="0" d="M11.582399368286133 16.2096004486084 C10.937999725341797 16.48080062866211 10.822799682617188 17.82360076904297 11.326800346374512 19.2096004486084 C11.83080005645752 20.595600128173828 12.766799926757812 21.49679946899414 13.405200004577637 21.225601196289062"></path>
<path fill="black" fill-opacity="1.0"  filling="0" d="M9.986400604248047 19.628400802612305 C10.25879955291748 20.27280044555664 11.60159969329834 20.38800048828125 12.986400604248047 19.884000778198242 C14.371200561523438 19.380001068115234 15.273599624633789 18.450000762939453 15.001199722290039 17.805601119995117"></path>
<path fill="black" fill-opacity="1.0"  filling="0" d="M3.7355995178222656 8.531999588012695 C3.2771997451782227 8.725199699401855 3.1955995559692383 9.67919921875 3.5532007217407227 10.664399147033691 C3.910799980163574 11.649599075317383 4.573200225830078 12.290399551391602 5.031599998474121 12.097199440002441"></path>
<path fill="black" fill-opacity="1.0"  filling="0" d="M2.600399971008301 10.963199615478516 C2.793600082397461 11.421600341796875 3.748800277709961 11.50320053100586 4.734000205993652 11.144400596618652 C5.719200611114502 10.785600662231445 6.360000133514404 10.12559986114502 6.166800022125244 9.667200088500977"></path>
<path fill="black" fill-opacity="1.0"  filling="0" d="M15.19320011138916 2.663999557495117 C14.734800338745117 2.8571996688842773 14.653200149536133 3.8124008178710938 15.0108003616333 4.79640007019043 C15.368400573730469 5.780400276184082 16.030799865722656 6.422399997711182 16.489200592041016 6.2291998863220215"></path>
<path fill="black" fill-opacity="1.0"  filling="0" d="M14.058000564575195 5.095200061798096 C14.251199722290039 5.553599834442139 15.206399917602539 5.635200023651123 16.191600799560547 5.277600288391113 C17.176801681518555 4.920000076293945 17.81760025024414 4.257599830627441 17.624401092529297 3.799201011657715"></path>
<path fill="black" fill-opacity="1.0"  filling="0" d="M20.229598999023438 14.221199989318848 C20.687999725341797 14.027999877929688 20.76959991455078 13.072800636291504 20.41200065612793 12.087600708007812 C20.054401397705078 11.102400779724121 19.392000198364258 10.461600303649902 18.9335994720459 10.654800415039062"></path>
<path fill="black" fill-opacity="1.0"  filling="0" d="M17.79960060119629 13.086000442504883 C17.991600036621094 13.544400215148926 18.946800231933594 13.62600040435791 19.9320011138916 13.268400192260742 C20.91720199584961 12.910799980163574 21.558000564575195 12.24839973449707 21.36479949951172 11.789999961853027"></path>
<path fill="black" fill-opacity="1.0"  filling="0" d="M7.994400501251221 19.371599197387695 C8.452800750732422 19.17839813232422 8.534400939941406 18.22319793701172 8.176799774169922 17.239198684692383 C7.819199562072754 16.255199432373047 7.156800270080566 15.611998558044434 6.698400020599365 15.805198669433594"></path>
<path fill="black" fill-opacity="1.0"  filling="0" d="M5.563199996948242 18.239999771118164 C5.756400108337402 18.698400497436523 6.711600303649902 18.779998779296875 7.695600509643555 18.422401428222656 C8.679601669311523 18.064800262451172 9.321600914001465 17.402400970458984 9.128400802612305 16.944000244140625"></path>
<path fill="black" fill-opacity="1.0"  filling="0" d="M5.361600399017334 15.703200340270996 C5.588399887084961 15.608400344848633 5.629199981689453 15.134400367736816 5.451600074768066 14.645999908447266 C5.27400016784668 14.157600402832031 4.946400165557861 13.839600563049316 4.718400001525879 13.935600280761719"></path>
<path fill="black" fill-opacity="1.0"  filling="0" d="M5.9243998527526855 14.49839973449707 C5.828400135040283 14.270400047302246 5.355599880218506 14.230799674987793 4.867199897766113 14.40719985961914 C4.378799915313721 14.583600044250488 4.059600353240967 14.913599967956543 4.155600070953369 15.140399932861328"></path>
<path fill="black" fill-opacity="1.0"  filling="0" d="M18.694799423217773 7.656000137329102 C18.466800689697266 7.751999855041504 18.427200317382812 8.224800109863281 18.604799270629883 8.713199615478516 C18.782398223876953 9.201600074768066 19.110000610351562 9.520800590515137 19.33799934387207 9.424799919128418"></path>
<path fill="black" fill-opacity="1.0"  filling="0" d="M19.900798797607422 8.218799591064453 C19.804798126220703 7.992000102996826 19.330799102783203 7.951199531555176 18.84239959716797 8.128799438476562 C18.3539981842041 8.306400299072266 18.035999298095703 8.640000343322754 18.131999969482422 8.86199951171875"></path>
<path fill="black" fill-opacity="1.0"  filling="0" d="M16.621198654174805 16.184398651123047 C16.394399642944336 16.280399322509766 16.353599548339844 16.754398345947266 16.531200408935547 17.242799758911133 C16.708799362182617 17.731201171875 17.037599563598633 18.0492000579834 17.264400482177734 17.95319938659668"></path>
<path fill="black" fill-opacity="1.0"  filling="0" d="M17.827199935913086 16.748401641845703 C17.731199264526367 16.520401000976562 17.258399963378906 16.479598999023438 16.770000457763672 16.657201766967773 C16.281600952148438 16.834802627563477 15.963600158691406 17.16360092163086 16.058401107788086 17.39040184020996"></path></svg>