<svg height='100px' width='100px'  fill="#000000" xmlns="http://www.w3.org/2000/svg" xmlns:xlink="http://www.w3.org/1999/xlink" version="1.1" baseProfile="basic" x="0px" y="0px" viewBox="0 0 128 128" xml:space="preserve"><g><path d="M98.3,51c11.5-11.5,11.5-30.3,0-41.8C86.8-2.3,68-2.3,56.5,9.2L34.6,31.1l41.8,41.8L98.3,51z M61.7,14.5   c8.6-8.6,22.7-8.6,31.3,0c8.6,8.6,8.6,22.7,0,31.3L76.4,62.4L45.1,31.1L61.7,14.5z"></path><path d="M31.1,34.6L9.2,56.5C-2.3,68-2.3,86.8,9.2,98.3c11.5,11.5,30.3,11.5,41.8,0l21.9-21.9L31.1,34.6z"></path><path d="M98.6,69.7c-15.9,0-28.9,12.9-28.9,28.9c0,15.9,12.9,28.9,28.9,28.9c15.9,0,28.9-12.9,28.9-28.9   C127.4,82.6,114.5,69.7,98.6,69.7z M98.6,120c-11.8,0-21.4-9.6-21.4-21.4c0-4.6,1.4-8.8,3.9-12.3l29.8,29.8   C107.4,118.6,103.1,120,98.6,120z M116.1,110.8L86.3,81c3.5-2.4,7.7-3.9,12.3-3.9c11.8,0,21.4,9.6,21.4,21.4   C120,103.1,118.6,107.4,116.1,110.8z"></path></g></svg>