<svg xmlns="http://www.w3.org/2000/svg" viewBox="0.0 0.0 24.0 24.0" height="200px" width="200px"><path fill="black" fill-opacity="1.0"  filling="0" d="M15.064716339111328 8.418463706970215 C12.84677791595459 9.249665260314941 11.742701530456543 11.543668746948242 12.502015113830566 13.299600601196289 A2.3537254333496094 2.3537254333496094 0.0 0 0 12.61019229888916 13.518045425415039 A2.460240125656128 2.460240125656128 0.0 0 0 13.086163520812988 14.131500244140625 C14.17070198059082 15.154621124267578 16.148563385009766 15.250236511230469 17.81375503540039 14.268983840942383 C20.66468620300293 12.589128494262695 22.48133087158203 8.986559867858887 22.48133087158203 8.986559867858887 C22.48133087158203 8.986559867858887 18.42093276977539 7.159440040588379 15.064716339111328 8.418463706970215 Z M17.61973762512207 13.93957233428955 A4.140026569366455 4.140026569366455 0.0 0 1 14.309585571289062 14.409956932067871 A2.5488791465759277 2.5488791465759277 0.0 0 1 13.333919525146484 13.841863632202148 A8.925883293151855 8.925883293151855 0.0 0 1 14.271203994750977 12.938078880310059 A9.484895706176758 9.484895706176758 0.0 0 1 17.726518630981445 11.09910774230957 A0.382233589887619 0.382233589887619 0.0 0 0 17.55064582824707 10.355143547058105 A10.084928512573242 10.084928512573242 0.0 0 0 13.80709457397461 12.329520225524902 A9.422622680664062 9.422622680664062 0.0 0 0 12.880979537963867 13.210271835327148 C12.871206283569336 13.190034866333008 12.86213493347168 13.169097900390625 12.853060722351074 13.148158073425293 A2.8189704418182373 2.8189704418182373 0.0 0 1 12.902613639831543 10.91068172454834 A4.000665187835693 4.000665187835693 0.0 0 1 15.19871997833252 8.775789260864258 A7.109251022338867 7.109251022338867 0.0 0 1 17.693016052246094 8.359838485717773 A12.761519432067871 12.761519432067871 0.0 0 1 21.939058303833008 9.181269645690918 C21.399580001831055 10.124138832092285 19.81394386291504 12.646355628967285 17.61973762512207 13.93957233428955 Z"></path>
<path fill="black" fill-opacity="1.0"  filling="0" d="M22.841445922851562 8.859538078308105 A0.3830927908420563 0.3830927908420563 0.0 0 0 22.637657165527344 8.638300895690918 C22.466672897338867 8.561532020568848 18.394411087036133 6.7616376876831055 14.930718421936035 8.06043815612793 A4.765312671661377 4.765312671661377 0.0 0 0 12.199125289916992 10.611971855163574 A3.576323986053467 3.576323986053467 0.0 0 0 12.150971412658691 13.451738357543945 A2.847395896911621 2.847395896911621 0.0 0 0 12.353363037109375 13.836976051330566 A2.9004528522491455 2.9004528522491455 0.0 0 0 12.850271224975586 14.43368911743164 A3.314570426940918 3.314570426940918 0.0 0 0 14.072994232177734 15.136470794677734 A4.190639972686768 4.190639972686768 0.0 0 0 15.375981330871582 15.336076736450195 A5.232369422912598 5.232369422912598 0.0 0 0 18.007770538330078 14.59769344329834 C20.921520233154297 12.880855560302734 22.745834350585938 9.310379981994629 22.822601318359375 9.158937454223633 A0.38185441493988037 0.38185441493988037 0.0 0 0 22.841445922851562 8.859538078308105 Z M14.309584617614746 14.409956932067871 A2.5488791465759277 2.5488791465759277 0.0 0 1 13.333919525146484 13.841863632202148 A2.117999792098999 2.117999792098999 0.0 0 1 12.8809814453125 13.2102632522583 C12.871208190917969 13.19002628326416 12.862136840820312 13.169089317321777 12.853062629699707 13.148149490356445 A2.8189704418182373 2.8189704418182373 0.0 0 1 12.902615547180176 10.910673141479492 A4.000665187835693 4.000665187835693 0.0 0 1 15.19871997833252 8.775789260864258 A7.109251022338867 7.109251022338867 0.0 0 1 17.693016052246094 8.359838485717773 A12.761519432067871 12.761519432067871 0.0 0 1 21.939058303833008 9.181269645690918 C21.399581909179688 10.124138832092285 19.813945770263672 12.646355628967285 17.61973762512207 13.93957233428955 A4.140026569366455 4.140026569366455 0.0 0 1 14.309584617614746 14.409956932067871 Z"></path>
<path fill="black" fill-opacity="1.0"  filling="0" d="M17.726516723632812 11.09910774230957 A9.484895706176758 9.484895706176758 0.0 0 0 14.271202087402344 12.938078880310059 A8.925883293151855 8.925883293151855 0.0 0 0 13.333919525146484 13.841863632202148 C13.206198692321777 13.984240531921387 13.206198692321777 13.984240531921387 13.086165428161621 14.131494522094727 C13.004507064819336 14.230596542358398 12.926342010498047 14.331093788146973 12.850274085998535 14.43368911743164 C11.792250633239746 15.855316162109375 11.215086936950684 17.57773780822754 11.125056266784668 19.58211326599121 L11.125056266784668 19.585603713989258 C11.107259750366211 19.97713279724121 11.107259750366211 19.97713279724121 11.11458969116211 20.383312225341797 C11.11738109588623 20.504045486450195 11.120868682861328 20.625473022460938 11.126453399658203 20.748313903808594 A0.3815999925136566 0.3815999925136566 0.0 0 1 10.769813537597656 21.14681625366211 A0.028811998665332794 0.028811998665332794 0.0 0 1 10.76213264465332 21.147510528564453 L10.739801406860352 21.147510528564453 A0.023901600390672684 0.023901600390672684 0.0 0 1 10.73282241821289 21.14681625366211 A0.38238000869750977 0.38238000869750977 0.0 0 1 10.362936019897461 20.782508850097656 C10.356653213500977 20.647815704345703 10.352465629577637 20.51451873779297 10.351073265075684 20.383312225341797 C10.346186637878418 20.116012573242188 10.349674224853516 19.854997634887695 10.360838890075684 19.60165786743164 A11.370832443237305 11.370832443237305 0.0 0 1 10.6735200881958 17.361387252807617 A9.426676750183105 9.426676750183105 0.0 0 1 12.353371620178223 13.836986541748047 C12.43781566619873 13.726720809936523 12.52296257019043 13.620637893676758 12.610200881958008 13.518050193786621 C12.698830604553223 13.411267280578613 12.789562225341797 13.308679580688477 12.880988121032715 13.210271835327148 A9.422622680664062 9.422622680664062 0.0 0 1 13.80710220336914 12.329520225524902 A10.084928512573242 10.084928512573242 0.0 0 1 17.5506534576416 10.355152130126953 A0.382233589887619 0.382233589887619 0.0 0 1 17.726526260375977 11.099116325378418 Z"></path>
<path fill="black" fill-opacity="1.0"  filling="0" d="M7.403135776519775 11.180066108703613 C4.797868728637695 10.203001976013184 1.6454401016235352 11.621833801269531 1.6454401016235352 11.621833801269531 C1.6454401016235352 11.621833801269531 3.055903434753418 14.417633056640625 5.268959999084473 15.722014427185059 C6.530071258544922 16.464574813842773 8.02079963684082 16.412940979003906 8.875022888183594 15.6731595993042 A1.9290719032287598 1.9290719032287598 0.0 0 0 9.351690292358398 15.057615280151367 C9.366345405578613 15.028997421264648 9.379605293273926 14.999686241149902 9.392864227294922 14.969676971435547 C9.981888771057129 13.606670379638672 9.124865531921387 11.825626373291016 7.403135776519775 11.180066108703613 Z M8.43393611907959 14.151025772094727 A7.903358459472656 7.903358459472656 0.0 0 0 5.492976188659668 12.60098648071289 A0.3818952143192291 0.3818952143192291 0.0 0 0 5.317108631134033 13.34425163269043 A7.292946815490723 7.292946815490723 0.0 0 1 7.9698286056518555 14.75890064239502 A6.82468318939209 6.82468318939209 0.0 0 1 8.6258544921875 15.385616302490234 A1.9274640083312988 1.9274640083312988 0.0 0 1 7.962846755981445 15.749924659729004 A3.1273341178894043 3.1273341178894043 0.0 0 1 5.462956428527832 15.392598152160645 C3.840343475341797 14.436479568481445 2.647629737854004 12.599596977233887 2.1912002563476562 11.81724739074707 C3.085214614868164 11.49272346496582 5.3561930656433105 10.82064437866211 7.269141674041748 11.5380859375 A3.019017457962036 3.019017457962036 0.0 0 1 9.003434181213379 13.148845672607422 A2.125811815261841 2.125811815261841 0.0 0 1 9.071128845214844 14.745647430419922 A7.48011589050293 7.48011589050293 0.0 0 0 8.433940887451172 14.151033401489258 Z"></path>
<path fill="black" fill-opacity="1.0"  filling="0" d="M9.706914901733398 12.849449157714844 A3.7859086990356445 3.7859086990356445 0.0 0 0 7.537137508392334 10.822042465209961 C4.815317153930664 9.801708221435547 1.6238040924072266 11.21286392211914 1.4891090393066406 11.272883415222168 A0.3853151798248291 0.3853151798248291 0.0 0 0 1.285323143005371 11.494120597839355 A0.37899598479270935 0.37899598479270935 0.0 0 0 1.304865837097168 11.7935209274292 C1.3641862869262695 11.912165641784668 2.7913970947265625 14.7058687210083 5.074934482574463 16.05142593383789 A4.158719539642334 4.158719539642334 0.0 0 0 7.1616644859313965 16.63627052307129 A3.327991008758545 3.327991008758545 0.0 0 0 8.199446678161621 16.47644805908203 A2.6787166595458984 2.6787166595458984 0.0 0 0 9.10811710357666 15.97604751586914 A2.3494222164154053 2.3494222164154053 0.0 0 0 9.61130142211914 15.380041122436523 A2.3129327297210693 2.3129327297210693 0.0 0 0 9.743205070495605 15.121116638183594 A2.8602793216705322 2.8602793216705322 0.0 0 0 9.706914901733398 12.849449157714844 Z M9.071126937866211 14.745648384094238 C9.062051773071289 14.770072937011719 9.052281379699707 14.794502258300781 9.041814804077148 14.818229675292969 A1.5526511669158936 1.5526511669158936 0.0 0 1 8.625863075256348 15.385625839233398 A1.9274640083312988 1.9274640083312988 0.0 0 1 7.962855815887451 15.749934196472168 A3.1273341178894043 3.1273341178894043 0.0 0 1 5.462965488433838 15.392607688903809 C3.840343475341797 14.436479568481445 2.647629737854004 12.599596977233887 2.1912002563476562 11.81724739074707 C3.085214614868164 11.49272346496582 5.3561930656433105 10.82064437866211 7.269141674041748 11.5380859375 A3.019017457962036 3.019017457962036 0.0 0 1 9.003434181213379 13.148845672607422 A2.125811815261841 2.125811815261841 0.0 0 1 9.071126937866211 14.745648384094238 Z"></path>
<path fill="black" fill-opacity="1.0"  filling="0" d="M11.148784637451172 20.38330841064453 C11.148086547851562 20.514514923095703 11.144597053527832 20.647113800048828 11.138314247131348 20.782506942749023 A0.3811199963092804 0.3811199963092804 0.0 0 1 10.769822120666504 21.14681625366211 A0.028811998665332794 0.028811998665332794 0.0 0 1 10.762142181396484 21.147510528564453 L10.739810943603516 21.147510528564453 C10.736320495605469 21.147510528564453 10.732831954956055 21.14681625366211 10.729344367980957 21.14681625366211 A0.3831263780593872 0.3831263780593872 0.0 0 1 10.374809265136719 20.74831199645996 C10.380391120910645 20.62548065185547 10.383880615234375 20.503345489501953 10.383880615234375 20.38330841064453 C10.387371063232422 20.116710662841797 10.379693031311035 19.857088088989258 10.360840797424316 19.603050231933594 L10.360840797424316 19.601654052734375 A6.917815208435059 6.917815208435059 0.0 0 0 9.108110427856445 15.976049423217773 C8.997143745422363 15.821114540100098 8.997143745422363 15.821114540100098 8.875007629394531 15.673157691955566 C8.756711959838867 15.525558471679688 8.756711959838867 15.525558471679688 8.625856399536133 15.385623931884766 A6.82468318939209 6.82468318939209 0.0 0 0 7.969830513000488 14.758907318115234 A7.292946815490723 7.292946815490723 0.0 0 0 5.317110061645508 13.344257354736328 A0.3818952143192291 0.3818952143192291 0.0 0 1 5.492977619171143 12.600992202758789 A7.903358459472656 7.903358459472656 0.0 0 1 8.433937072753906 14.151032447814941 A7.48011589050293 7.48011589050293 0.0 0 1 9.071123123168945 14.745646476745605 C9.212444305419922 14.8932466506958 9.212444305419922 14.8932466506958 9.351682662963867 15.057612419128418 C9.483586311340332 15.211494445800781 9.483586311340332 15.211494445800781 9.611300468444824 15.380043029785156 A7.316534042358398 7.316534042358398 0.0 0 1 10.673511505126953 17.36069107055664 L10.673511505126953 17.361385345458984 A8.415359497070312 8.415359497070312 0.0 0 1 11.125052452087402 19.582103729248047 L11.125052452087402 19.586990356445312 C11.143199920654297 19.843130111694336 11.151573181152344 20.108333587646484 11.148784637451172 20.38330841064453 Z"></path></svg>