<svg height='100px' width='100px'  fill="#000000" xmlns="http://www.w3.org/2000/svg" data-name="Слой 1" viewBox="0 0 100 100" x="0px" y="0px"><title>bio</title><path d="M62.76965,35.07693C53.52824,38.54027,48.92792,48.09862,52.09173,55.415a9.80719,9.80719,0,0,0,.45074.91019,10.251,10.251,0,0,0,1.98321,2.55606c4.51891,4.263,12.76,4.6614,19.6983.57285C86.10286,52.4547,93.67221,37.444,93.67221,37.444S76.75388,29.831,62.76965,35.07693ZM73.41557,58.08155a17.25011,17.25011,0,0,1-13.7923,1.95994A10.62033,10.62033,0,0,1,55.558,57.67443a37.19118,37.19118,0,0,1,3.90535-3.76577,39.5204,39.5204,0,0,1,14.39715-7.66238,1.59264,1.59264,0,0,0-.7328-3.09985A42.02054,42.02054,0,0,0,57.52956,51.373a39.26093,39.26093,0,0,0-3.85881,3.6698c-.04072-.08432-.07852-.17156-.11633-.25881a11.74571,11.74571,0,0,1,.20647-9.32282A16.66944,16.66944,0,0,1,63.328,36.56579,29.62188,29.62188,0,0,1,73.7209,34.83266a53.173,53.173,0,0,1,17.69184,3.42263C89.16492,42.18391,82.5581,52.69315,73.41557,58.08155Z"></path><path d="M95.17269,36.91474a1.59622,1.59622,0,0,0-.84911-.92182c-.71244-.31987-17.6802-7.81943-32.11225-2.40776A19.85547,19.85547,0,0,0,50.82969,44.21655a14.90135,14.90135,0,0,0-.20064,11.83236,11.86415,11.86415,0,0,0,.8433,1.60516,12.08522,12.08522,0,0,0,2.07045,2.4863,13.81071,13.81071,0,0,0,5.09468,2.92826,17.461,17.461,0,0,0,5.42911.83169,21.80154,21.80154,0,0,0,10.96579-3.0766C87.173,53.67023,94.77431,38.79325,95.09417,38.16224A1.59106,1.59106,0,0,0,95.17269,36.91474ZM59.62327,60.04149A10.62033,10.62033,0,0,1,55.558,57.67443a8.825,8.825,0,0,1-1.88724-2.63167c-.04072-.08432-.07852-.17156-.11633-.25881a11.74571,11.74571,0,0,1,.20647-9.32282A16.66944,16.66944,0,0,1,63.328,36.56579,29.62188,29.62188,0,0,1,73.7209,34.83266a53.173,53.173,0,0,1,17.69184,3.42263c-2.24782,3.92862-8.85464,14.43786-17.99717,19.82626A17.25011,17.25011,0,0,1,59.62327,60.04149Z"></path><path d="M73.86049,46.24628a39.5204,39.5204,0,0,0-14.39715,7.66238A37.19118,37.19118,0,0,0,55.558,57.67443q-.53217.59324-1.03231,1.2068c-.34024.41292-.66593.83166-.98288,1.25914-4.40843,5.92345-6.81328,13.10021-7.18841,21.45177v.01454q-.07415,1.63137-.04361,3.32378c.01163.50306.02616,1.009.04943,1.52084a1.59,1.59,0,0,1-1.486,1.66043.12005.12005,0,0,1-.032.00289h-.09305a.09959.09959,0,0,1-.02908-.00289,1.59325,1.59325,0,0,1-1.54119-1.51795c-.02618-.56122-.04363-1.11663-.04943-1.66332-.02036-1.11375-.00583-2.20131.04069-3.25689A47.37847,47.37847,0,0,1,44.473,72.33911a39.27782,39.27782,0,0,1,6.99938-14.685c.35185-.45944.70663-.90145,1.07012-1.3289.36929-.44493.74734-.87238,1.12828-1.28241a39.26093,39.26093,0,0,1,3.85881-3.6698,42.02054,42.02054,0,0,1,15.59813-8.22653,1.59264,1.59264,0,0,1,.7328,3.09985Z"></path><path d="M30.8464,46.58361C19.99112,42.51251,6.856,48.42431,6.856,48.42431s5.87693,11.64916,15.098,17.08408c5.25463,3.094,11.466,2.87886,15.02526-.20356a8.0378,8.0378,0,0,0,1.98612-2.56477c.06106-.11924.11631-.24137.17156-.36641C41.5912,56.69446,38.02027,49.27344,30.8464,46.58361Zm4.295,12.379a32.93066,32.93066,0,0,0-12.254-6.4585,1.59123,1.59123,0,0,0-.73278,3.09694,30.38728,30.38728,0,0,1,11.053,5.89437,28.43618,28.43618,0,0,1,2.73344,2.61132,8.0311,8.0311,0,0,1-2.76253,1.51795,13.03056,13.03056,0,0,1-10.41621-1.48886C16.00143,60.152,11.03179,52.49832,9.13,49.23853c3.72506-1.35218,13.18747-4.15251,21.15809-1.16317a12.57924,12.57924,0,0,1,7.22622,6.7115,8.85755,8.85755,0,0,1,.28206,6.65334A31.16715,31.16715,0,0,0,35.14142,58.96264Z"></path><path d="M40.44548,53.53937a15.77462,15.77462,0,0,0-9.04074-8.44753C20.06382,40.84045,6.76585,46.72027,6.20462,46.97035a1.60548,1.60548,0,0,0-.84911.92182,1.57915,1.57915,0,0,0,.08143,1.2475c.24717.49435,6.19388,12.13478,15.70862,17.74127a17.328,17.328,0,0,0,8.69471,2.43685,13.86663,13.86663,0,0,0,4.32409-.66593,11.16132,11.16132,0,0,0,3.78613-2.085,9.78926,9.78926,0,0,0,2.0966-2.48336,9.63722,9.63722,0,0,0,.5496-1.07885A11.91783,11.91783,0,0,0,40.44548,53.53937ZM37.79636,61.4402c-.03781.10177-.07852.20356-.12213.30242a6.46938,6.46938,0,0,1-1.73313,2.36415,8.0311,8.0311,0,0,1-2.76253,1.51795,13.03056,13.03056,0,0,1-10.41621-1.48886C16.00143,60.152,11.03179,52.49832,9.13,49.23853c3.72506-1.35218,13.18747-4.15251,21.15809-1.16317a12.57924,12.57924,0,0,1,7.22622,6.7115A8.85755,8.85755,0,0,1,37.79636,61.4402Z"></path><path d="M46.45327,84.93046c-.00291.54669-.01745,1.09918-.04363,1.66332a1.588,1.588,0,0,1-1.53538,1.51795.12005.12005,0,0,1-.032.00289h-.09305c-.01454,0-.02908-.00289-.04361-.00289a1.59636,1.59636,0,0,1-1.47723-1.66043c.02326-.5118.0378-1.02069.0378-1.52084.01454-1.11083-.01745-2.19259-.096-3.25108v-.00581a28.82423,28.82423,0,0,0-5.21971-15.10669q-.46236-.64556-.97126-1.26205-.4929-.615-1.03813-1.19806a28.43618,28.43618,0,0,0-2.73344-2.61132,30.38728,30.38728,0,0,0-11.053-5.89437,1.59123,1.59123,0,0,1,.73278-3.09694,32.93066,32.93066,0,0,1,12.254,6.4585,31.16715,31.16715,0,0,1,2.65494,2.47756q.58884.615,1.169,1.29986.5496.64118,1.08174,1.34346a30.48556,30.48556,0,0,1,4.42588,8.2527v.00289a35.064,35.064,0,0,1,1.88142,9.253v.02036C46.43,82.67971,46.46489,83.78473,46.45327,84.93046Z"></path></svg>