<svg enable-background="new -490 326.3 118.7 128.7" viewBox="-490 326.3 118.7 128.7" xmlns="http://www.w3.org/2000/svg"><g fill="#1de9b6"><path d="m-471.9 379.3 5.3-1.5-16.6-18.9-3.9 24.8 5.3-1.5 7 24.1 9.9-2.9z"/><path d="m-401.1 426.8c2-1 3.1-4.1 2.5-6.7l-1.9-8.1c-.3-1.1-.8-2-1.4-2.5-1-1.6-2.7-2.7-4.3-2.7h-14.8l13.5-7.1c2-1 3.1-4.1 2.5-6.7l-2.1-8.5c-.5-2-1.9-3.3-3.4-3.3h-.1c-.7-.4-1.4-.6-2.1-.6h-15.6l14.4-7.5c2-1 3.1-4.1 2.5-6.7l-1.9-8.1c-.5-2-1.9-3.3-3.4-3.3-.4 0-.8.1-1.1.2-.3-.1-.7-.2-1-.2h-16.5l15.3-8c2-1 3.1-4.1 2.5-6.7l-1.9-8.1c0-.1-.1-.2-.1-.3 3.9.3 7.2 1.2 9.6 2.9 3.1 2.2 4.7 5.7 5 10.8 1.4 29.8 12.7 46.7 16.9 53.1.4.6 13.6 32.6 13.8 33v-5.3c-.3-.5-11-28.8-11.4-29.5-4.1-6.2-15-22.6-16.4-51.6-.3-5.9-2.4-10.3-6.2-13-3.4-2.4-8-3.6-14.4-3.5h-.1c-.5 0-.9.1-1.4.4l-44.1 23c-2 1-3.1 4.1-2.5 6.7l.1.5v.2l.5 2.1 1.3 5.4c0 .2.1.3.2.5.6 2.6 2.9 4.7 5.2 4.8h12.8l-11.4 5.9c-2 1-3.1 4.1-2.5 6.7l1.9 8.1c.2 1 .7 1.8 1.3 2.4 1 1.4 2.6 2.4 4.1 2.4h14l-12.6 6.6c-2 1-3.1 4.1-2.5 6.7l1.9 8.1c.4 1.6 1.3 2.7 2.4 3.1.9.8 1.9 1.2 3 1.2h16.8l-15.2 8c-2 1-3.1 4.1-2.5 6.7l1.9 8.1c.2.7.5 1.3.8 1.8-3.9 1.2-6.9 1.2-8.8.1-4-2.4-3.4-10.3-2.9-17.9.5-6.7.9-13-1.5-16.7-10.6-15.8-12.8-20.6-13.1-21.9.7-.5-8.6-43.8-9-44.7l.4 2.5c-.1-.4-3.4-3.4-2.9-3.6-.2.1 1 2.7.7 3.6-.4 1.3 7.1 44.2 21.6 66.2 1.9 2.9 1.4 9 1 14.9-.6 8.5-1.3 17.4 4.3 20.7 1.1.7 2.6 1.2 4.9 1.2 2.2 0 5.1-.5 9-2 .3.1.7.2 1 .2l43.4-24c-1.6-.8-18.8 9.2-18.5 10.2m18-10c-.6-2.6-9.7 5.3-12.1 6.3m9.6-21.9c.1.1.4.4.5 1l1.9 8.1c.4 1.5-.3 3.1-1 3.4l-44.1 23c-.1-.1-.4-.4-.5-1l-1.9-8.1c-.4-1.5.3-3.1 1-3.4zm-6.4-27.2c.1.1.4.4.5 1l1.9 8.1c.4 1.5-.3 3.1-1 3.4l-44 23.1c-.1-.1-.4-.4-.5-1l-1.9-8.1c-.4-1.5.3-3.1 1-3.4zm-6.2-26.3c.1.1.4.4.5 1l1.9 8.1c.4 1.5-.3 3.1-1 3.4l-44.1 23c-.1-.1-.4-.4-.5-1l-1.9-8.1c-.4-1.5.3-3.1 1-3.4zm-4.7-13.6-44.1 23c-.1-.1-.4-.4-.5-1l-1.9-8.1c-.4-1.5.3-3.1 1-3.4l44.1-23c.1.1.4.4.5 1l1.9 8.1c.4 1.5-.3 3.1-1 3.4z"/><path d="m-383.6 396.8 5.1-2.1-18.5-17-1.3 25.1 5.1-2.1 9.5 23.2 9.5-3.9z"/></g></svg>